<?xml version="1.0" encoding="UTF-8"?>
<svg version="1.1" xmlns="http://www.w3.org/2000/svg" width="433" height="500">
<path d="M0 0 C0.68436569 -0.00311998 1.36873139 -0.00623996 2.07383543 -0.00945449 C4.3666585 -0.01743026 6.65921659 -0.01111231 8.95204163 -0.00482178 C10.59654394 -0.00753206 12.24104503 -0.0110932 13.88554382 -0.01544189 C18.35507575 -0.02457022 22.82451546 -0.0210181 27.29404902 -0.01468372 C31.97916712 -0.00961838 36.66427734 -0.01431738 41.34939575 -0.01745605 C49.22721266 -0.02109737 57.10499212 -0.01629564 64.98280334 -0.0067749 C74.06557423 0.00407599 83.14825508 0.0006093 92.23102373 -0.01042771 C100.04186644 -0.01953656 107.85268219 -0.02076732 115.6635285 -0.01555037 C120.32244275 -0.01244601 124.98131489 -0.0119782 129.64022636 -0.01862335 C134.03069206 -0.0244474 138.42104327 -0.02030839 142.81149673 -0.00883484 C144.41375731 -0.00621362 146.01602769 -0.00690931 147.61828423 -0.01136017 C156.91726712 -0.03478729 166.06605137 0.20822608 175.19056702 2.25396729 C175.52056702 2.58396729 175.85056702 2.91396729 176.19056702 3.25396729 C178.20368151 3.64965837 180.2265391 3.99648919 182.25306702 4.31646729 C183.91015686 4.58136963 183.91015686 4.58136963 185.60072327 4.85162354 C186.4553717 4.98439697 187.31002014 5.11717041 188.19056702 5.25396729 C188.19056702 5.91396729 188.19056702 6.57396729 188.19056702 7.25396729 C188.91502014 7.27974854 189.63947327 7.30552979 190.38587952 7.33209229 C196.56307212 7.69448758 200.15818178 8.41976901 205.19056702 12.25396729 C207.91881742 13.03612316 207.91881742 13.03612316 210.19056702 13.25396729 C210.19056702 13.91396729 210.19056702 14.57396729 210.19056702 15.25396729 C212.17056702 15.74896729 212.17056702 15.74896729 214.19056702 16.25396729 C214.19056702 16.91396729 214.19056702 17.57396729 214.19056702 18.25396729 C214.95369202 18.19209229 215.71681702 18.13021729 216.50306702 18.06646729 C219.74959516 18.29296925 220.09736888 18.89911938 222.19056702 21.25396729 C222.91244202 21.68709229 223.63431702 22.12021729 224.37806702 22.56646729 C226.85675849 24.05368217 229.16806999 25.61678747 231.50306702 27.31646729 C232.54914124 28.07636963 232.54914124 28.07636963 233.61634827 28.85162354 C234.13584045 29.31439697 234.65533264 29.77717041 235.19056702 30.25396729 C235.19056702 30.91396729 235.19056702 31.57396729 235.19056702 32.25396729 C235.97431702 32.52209229 236.75806702 32.79021729 237.56556702 33.06646729 C240.19056702 34.25396729 240.19056702 34.25396729 242.19056702 37.25396729 C243.18056702 37.58396729 244.17056702 37.91396729 245.19056702 38.25396729 C245.65462952 39.46052979 245.65462952 39.46052979 246.12806702 40.69146729 C246.90268511 43.36282762 246.90268511 43.36282762 249.00306702 44.12896729 C252.4081835 45.88017005 254.30343266 48.97468463 256.19056702 52.25396729 C256.19056702 52.91396729 256.19056702 53.57396729 256.19056702 54.25396729 C256.85056702 54.25396729 257.51056702 54.25396729 258.19056702 54.25396729 C262.19056702 59.54808493 262.19056702 59.54808493 262.19056702 63.25396729 C262.85056702 63.25396729 263.51056702 63.25396729 264.19056702 63.25396729 C266.62217307 66.62080643 267.19056702 67.98747093 267.19056702 72.25396729 C267.85056702 72.25396729 268.51056702 72.25396729 269.19056702 72.25396729 C269.52830139 73.0132251 269.86603577 73.77248291 270.21400452 74.55474854 C270.66002014 75.54861572 271.10603577 76.54248291 271.56556702 77.56646729 C272.00642639 78.5526001 272.44728577 79.53873291 272.90150452 80.55474854 C274.17299459 83.38141935 274.17299459 83.38141935 276.19056702 86.25396729 C276.75687175 88.6534214 277.13636882 91.05522892 277.53041077 93.48834229 C278.1238007 96.39246616 278.1238007 96.39246616 279.68275452 99.41802979 C281.7557483 104.0754779 282.0036626 108.843918 282.37806702 113.87896729 C282.45702209 114.8638916 282.53597717 115.84881592 282.61732483 116.86358643 C283.46471565 127.99980581 283.25491313 138.80942647 282.44056702 149.94146729 C282.37901428 150.90431641 282.31746155 151.86716553 282.25404358 152.85919189 C281.76303488 158.79255322 280.53402634 163.65489032 278.07655334 169.08575439 C276.86102487 172.06043291 276.63405532 175.08619368 276.19056702 178.25396729 C275.73166077 178.85982666 275.27275452 179.46568604 274.79994202 180.08990479 C272.91630213 182.62276036 272.03111002 185.02618756 271.00306702 188.00396729 C270.65888733 188.98881104 270.31470764 189.97365479 269.96009827 190.98834229 C269.70615295 191.73599854 269.45220764 192.48365479 269.19056702 193.25396729 C268.53056702 193.25396729 267.87056702 193.25396729 267.19056702 193.25396729 C267.08744202 194.01709229 266.98431702 194.78021729 266.87806702 195.56646729 C266.10857683 198.57447439 265.31535875 199.12917555 263.19056702 201.25396729 C262.09890426 203.18727331 262.09890426 203.18727331 261.19056702 205.25396729 C259.86421321 208.17194566 258.52869296 210.06649379 256.19056702 212.25396729 C255.0071368 213.66750893 253.82469631 215.08191663 252.65150452 216.50396729 C244.39286798 226.3966656 244.39286798 226.3966656 241.19056702 229.25396729 C240.53056702 229.25396729 239.87056702 229.25396729 239.19056702 229.25396729 C239.19056702 229.91396729 239.19056702 230.57396729 239.19056702 231.25396729 C226.04770987 243.25396729 226.04770987 243.25396729 220.19056702 243.25396729 C220.19056702 243.91396729 220.19056702 244.57396729 220.19056702 245.25396729 C217.54317785 246.71459579 216.29608367 247.25396729 213.19056702 247.25396729 C213.19056702 247.91396729 213.19056702 248.57396729 213.19056702 249.25396729 C211.60857071 249.90306883 210.02490978 250.54811423 208.44056702 251.19146729 C207.11798889 251.73093994 207.11798889 251.73093994 205.76869202 252.28131104 C203.57870597 253.10753304 201.4715843 253.74766672 199.19056702 254.25396729 C199.19056702 254.91396729 199.19056702 255.57396729 199.19056702 256.25396729 C198.53830139 256.3635376 197.88603577 256.47310791 197.21400452 256.58599854 C196.34002014 256.74455322 195.46603577 256.90310791 194.56556702 257.06646729 C193.70705139 257.2172876 192.84853577 257.36810791 191.96400452 257.52349854 C189.10637773 258.15705399 189.10637773 258.15705399 186.45033264 259.75396729 C182.85795335 261.40702139 180.19426192 261.75817953 176.26087952 261.98443604 C174.97181702 262.06500244 173.68275452 262.14556885 172.35462952 262.22857666 C171.00829037 262.29982453 169.66193595 262.37078453 168.31556702 262.44146729 C166.94570363 262.52295277 165.57591023 262.60562383 164.20619202 262.68951416 C160.86815287 262.88932636 157.52988545 263.07706027 154.19056702 263.25396729 C154.19056702 263.91396729 154.19056702 264.57396729 154.19056702 265.25396729 C143.30056702 265.25396729 132.41056702 265.25396729 121.19056702 265.25396729 C121.19056702 264.59396729 121.19056702 263.93396729 121.19056702 263.25396729 C106.67056702 263.25396729 92.15056702 263.25396729 77.19056702 263.25396729 C76.86056702 263.91396729 76.53056702 264.57396729 76.19056702 265.25396729 C76.19056702 264.59396729 76.19056702 263.93396729 76.19056702 263.25396729 C71.84872499 263.43861095 71.84872499 263.43861095 68.19056702 265.25396729 C64.11979584 265.60289053 60.99080795 264.66801042 57.19056702 263.25396729 C57.19056702 263.91396729 57.19056702 264.57396729 57.19056702 265.25396729 C56.53056702 265.25396729 55.87056702 265.25396729 55.19056702 265.25396729 C54.86056702 264.59396729 54.53056702 263.93396729 54.19056702 263.25396729 C52.16593447 262.60183437 52.16593447 262.60183437 50.19056702 262.25396729 C49.69864853 255.98200664 49.69864853 255.98200664 51.75306702 252.94146729 C52.55744202 252.05459229 53.36181702 251.16771729 54.19056702 250.25396729 C55.99360452 247.70922572 57.7491203 245.13475112 59.50697327 242.55865479 C61.19056702 240.25396729 61.19056702 240.25396729 62.59681702 238.87896729 C65.11633473 236.31004726 67.07092117 233.31949374 69.12806702 230.37896729 C75.47523806 221.33876865 75.47523806 221.33876865 78.19056702 218.25396729 C78.85056702 218.25396729 79.51056702 218.25396729 80.19056702 218.25396729 C80.27306702 217.51146729 80.35556702 216.76896729 80.44056702 216.00396729 C81.33653937 212.71873531 82.70337424 211.50798574 85.19056702 209.25396729 C85.52056702 208.59396729 85.85056702 207.93396729 86.19056702 207.25396729 C86.85056702 207.25396729 87.51056702 207.25396729 88.19056702 207.25396729 C88.85056702 205.60396729 89.51056702 203.95396729 90.19056702 202.25396729 C90.85056702 202.25396729 91.51056702 202.25396729 92.19056702 202.25396729 C92.52056702 200.60396729 92.85056702 198.95396729 93.19056702 197.25396729 C94.18056702 196.92396729 95.17056702 196.59396729 96.19056702 196.25396729 C97.4092663 193.74949213 97.4092663 193.74949213 98.19056702 191.25396729 C98.85056702 191.25396729 99.51056702 191.25396729 100.19056702 191.25396729 C100.37619202 190.44959229 100.56181702 189.64521729 100.75306702 188.81646729 C102.42550523 184.67172911 104.74264832 181.86993899 107.63197327 178.50006104 C109.37782041 175.9841159 109.96954844 174.29911211 110.19056702 171.25396729 C108.18380076 167.59878589 106.67268576 165.57537978 103.19056702 163.25396729 C84.05056702 162.92396729 64.91056702 162.59396729 45.19056702 162.25396729 C45.19056702 242.11396729 45.19056702 321.97396729 45.19056702 404.25396729 C44.53056702 404.25396729 43.87056702 404.25396729 43.19056702 404.25396729 C43.19056702 404.91396729 43.19056702 405.57396729 43.19056702 406.25396729 C25.65787373 406.34737744 8.12525802 406.4179301 -9.40762711 406.46121597 C-17.54832015 406.4818479 -25.68885866 406.50998039 -33.82945251 406.5557251 C-40.9241794 406.59557376 -48.01879437 406.62139552 -55.11363006 406.63032126 C-58.87091534 406.63553942 -62.62788044 406.64781659 -66.38506317 406.67688751 C-70.57777149 406.70906564 -74.76992194 406.70992798 -78.9627533 406.70806885 C-80.21072189 406.72244995 -81.45869049 406.73683105 -82.74447632 406.75164795 C-83.88588577 406.74614929 -85.02729523 406.74065063 -86.20329285 406.73498535 C-87.1951421 406.73867252 -88.18699135 406.7423597 -89.20889664 406.7461586 C-92.60521372 406.1033536 -93.64042533 404.90596421 -95.80943298 402.25396729 C-96.3085283 399.88716209 -96.3085283 399.88716209 -96.30721092 397.20709038 C-96.31640851 396.18320807 -96.32560611 395.15932577 -96.33508241 394.10441673 C-96.32479529 392.98127543 -96.31450816 391.85813413 -96.3039093 390.70095825 C-96.30873813 389.50655439 -96.31356696 388.31215054 -96.31854212 387.08155262 C-96.32787544 383.76485615 -96.31922628 380.44908218 -96.30301356 377.13246989 C-96.28986688 373.55644711 -96.29975481 369.98047917 -96.30677795 366.40444946 C-96.31686621 359.399113 -96.305574 352.39396521 -96.28707735 345.38865219 C-96.26632396 337.23612433 -96.26644932 329.08363742 -96.26742251 320.9310881 C-96.26842401 306.3894233 -96.25009276 291.84784645 -96.22105408 277.30621338 C-96.19286832 263.18445229 -96.17871295 249.06276861 -96.18003845 234.940979 C-96.18011836 234.070958 -96.18019828 233.20093699 -96.18028061 232.30455171 C-96.18036132 231.43605789 -96.18044203 230.56756407 -96.18052518 229.67275226 C-96.18190361 213.60972805 -96.17013333 197.54673683 -96.15221875 181.48372331 C-96.14617761 175.79593975 -96.14405864 170.10816223 -96.14315414 164.42037582 C-96.14179217 157.49400356 -96.13289474 150.56768688 -96.11448853 143.64133821 C-96.10523281 140.10492788 -96.09916878 136.56858881 -96.10167694 133.03216553 C-96.10425929 129.20572375 -96.09141251 125.37942621 -96.07685852 121.55300903 C-96.08150433 119.86160492 -96.08150433 119.86160492 -96.08624399 118.13603103 C-96.07979509 117.11736422 -96.0733462 116.09869741 -96.06670189 115.04916191 C-96.06529304 114.16506295 -96.06388419 113.28096399 -96.06243265 112.37007415 C-95.80943298 110.25396729 -95.80943298 110.25396729 -93.80943298 108.25396729 C-90.04907305 106.84007893 -86.06305823 107.12080954 -82.1033783 107.14044189 C-80.92806108 107.14026109 -80.92806108 107.14026109 -79.72900009 107.14007664 C-77.19849028 107.14082165 -74.66805458 107.14843113 -72.13755798 107.15631104 C-70.57294246 107.15778173 -69.00832644 107.15880165 -67.44371033 107.15936279 C-61.6489437 107.1646009 -55.85418761 107.17856214 -50.05943298 107.19146729 C-37.10693298 107.21209229 -24.15443298 107.23271729 -10.80943298 107.25396729 C-10.80943298 72.60396729 -10.80943298 37.95396729 -10.80943298 2.25396729 C-6.5654645 0.13198304 -4.64994492 0.00286067 0 0 Z M45.19056702 54.25396729 C45.19056702 71.74396729 45.19056702 89.23396729 45.19056702 107.25396729 C51.56562561 107.32744385 51.56562561 107.32744385 58.06947327 107.40240479 C61.47163839 107.44698428 64.87376546 107.49347755 68.27588654 107.54125977 C71.85979478 107.59107258 75.44367367 107.63756232 79.02772522 107.67584229 C82.48379979 107.71288631 85.9396364 107.75929614 89.39550591 107.81203079 C91.34677182 107.83941084 93.29816415 107.85724738 95.24954224 107.87490845 C101.28856588 107.97484339 106.4845361 108.25449779 112.19056702 110.25396729 C115.27198167 110.55412975 118.32821549 110.68948346 121.42103577 110.81256104 C124.5549584 111.31204377 125.77745669 112.26786825 128.19056702 114.25396729 C130.27179539 115.15494843 130.27179539 115.15494843 132.37806702 115.81646729 C134.48353577 116.50787354 134.48353577 116.50787354 136.19056702 117.25396729 C136.52056702 117.91396729 136.85056702 118.57396729 137.19056702 119.25396729 C138.51056702 119.25396729 139.83056702 119.25396729 141.19056702 119.25396729 C141.19056702 119.91396729 141.19056702 120.57396729 141.19056702 121.25396729 C142.7215655 122.45235157 142.7215655 122.45235157 144.69056702 123.69146729 C151.90737184 128.9178722 156.4288521 135.89677781 159.19056702 144.25396729 C159.85056702 144.58396729 160.51056702 144.91396729 161.19056702 145.25396729 C162.84086517 148.02476307 163.61959553 150.670403 164.25306702 153.81646729 C164.77903959 156.39416758 165.35559252 158.74904381 166.19056702 161.25396729 C166.42247647 165.04169171 166.3757365 168.83488606 166.37806702 172.62896729 C166.39031311 173.67052979 166.4025592 174.71209229 166.41517639 175.78521729 C166.41710999 176.79326416 166.41904358 177.80131104 166.42103577 178.83990479 C166.42514465 179.75820068 166.42925354 180.67649658 166.43348694 181.62261963 C166.16797334 184.49870559 165.36224508 186.62789838 164.19056702 189.25396729 C163.80702916 190.60010996 163.45031682 191.95435259 163.12806702 193.31646729 C162.97209045 193.96744385 162.81611389 194.61842041 162.65541077 195.28912354 C162.50201233 195.93752197 162.34861389 196.58592041 162.19056702 197.25396729 C161.85887126 198.58770895 161.52599527 199.92115943 161.19056702 201.25396729 C160.53056702 201.25396729 159.87056702 201.25396729 159.19056702 201.25396729 C158.53056702 203.56396729 157.87056702 205.87396729 157.19056702 208.25396729 C159.96293196 208.1670499 162.7320378 208.06019368 165.50306702 207.94146729 C166.28875061 207.91890869 167.0744342 207.8963501 167.88392639 207.87310791 C168.64125061 207.83765869 169.39857483 207.80220947 170.17884827 207.76568604 C170.87534485 207.73950195 171.57184143 207.71331787 172.28944397 207.68634033 C174.70131476 207.13780776 175.5010678 206.01090037 177.19056702 204.25396729 C178.34556702 203.94459229 179.50056702 203.63521729 180.69056702 203.31646729 C184.63873849 202.11791523 184.8936125 201.41227975 187.19056702 198.25396729 C189.47264252 197.03308265 191.76012157 196.17111651 194.19056702 195.25396729 C194.19056702 194.59396729 194.19056702 193.93396729 194.19056702 193.25396729 C194.80931702 193.17146729 195.42806702 193.08896729 196.06556702 193.00396729 C198.8656212 192.01571287 198.93170634 190.85036743 200.19056702 188.25396729 C200.80931702 187.94974854 201.42806702 187.64552979 202.06556702 187.33209229 C204.40666463 186.14432953 205.54101487 184.96306516 207.19056702 182.94146729 C207.70232483 182.31756104 208.21408264 181.69365479 208.74134827 181.05084229 C209.45871155 180.16138916 209.45871155 180.16138916 210.19056702 179.25396729 C210.91244202 178.40834229 211.63431702 177.56271729 212.37806702 176.69146729 C214.36794397 174.01542586 215.72868327 171.24418403 217.19056702 168.25396729 C217.85056702 167.59396729 218.51056702 166.93396729 219.19056702 166.25396729 C220.05686198 164.19028032 220.69542387 162.09767644 221.35389709 159.95880127 C221.88247316 158.24999057 222.4254718 156.54551515 222.98841858 154.84771729 C225.33632862 147.23096782 225.60972857 140.12282011 225.50306702 132.19146729 C225.50628967 130.9894165 225.50951233 129.78736572 225.51283264 128.54888916 C225.45886051 119.55516909 225.30043019 110.91876204 220.19056702 103.25396729 C219.86056702 102.24334229 219.53056702 101.23271729 219.19056702 100.19146729 C218.19784787 97.27535479 217.10248862 95.62475007 215.19056702 93.25396729 C214.73681702 92.49084229 214.28306702 91.72771729 213.81556702 90.94146729 C212.47413677 88.72294804 211.095979 86.57661199 209.62806702 84.44146729 C209.00738342 83.53461182 209.00738342 83.53461182 208.37416077 82.60943604 C207.98357483 82.16213135 207.59298889 81.71482666 207.19056702 81.25396729 C206.53056702 81.25396729 205.87056702 81.25396729 205.19056702 81.25396729 C204.20056702 78.77896729 204.20056702 78.77896729 203.19056702 76.25396729 C202.20056702 76.25396729 201.21056702 76.25396729 200.19056702 76.25396729 C200.19056702 75.59396729 200.19056702 74.93396729 200.19056702 74.25396729 C199.53056702 74.25396729 198.87056702 74.25396729 198.19056702 74.25396729 C198.19056702 73.59396729 198.19056702 72.93396729 198.19056702 72.25396729 C193.24819376 67.62049236 186.97077326 64.10149307 180.19056702 63.25396729 C180.19056702 62.59396729 180.19056702 61.93396729 180.19056702 61.25396729 C176.29028477 58.65377912 172.71622132 59.10311214 168.19056702 59.25396729 C168.19056702 58.59396729 168.19056702 57.93396729 168.19056702 57.25396729 C167.48029358 57.12119385 166.77002014 56.98842041 166.03822327 56.85162354 C165.1191217 56.67502197 164.20002014 56.49842041 163.25306702 56.31646729 C162.33654358 56.14244385 161.42002014 55.96842041 160.47572327 55.78912354 C158.19056702 55.25396729 158.19056702 55.25396729 157.19056702 54.25396729 C155.73575207 54.15835119 154.27631216 54.13208377 152.81835938 54.13371277 C151.87459946 54.1323381 150.93083954 54.13096344 149.95848083 54.12954712 C148.9147934 54.1331424 147.87110596 54.13673767 146.79579163 54.14044189 C145.7032457 54.14029587 144.61069977 54.14014984 143.48504639 54.13999939 C139.85431469 54.14069906 136.22363356 54.148494 132.59291077 54.15631104 C130.08327258 54.15817502 127.57363404 54.15959902 125.06399536 54.16059875 C119.12122108 54.16403381 113.17846318 54.17192456 107.23569733 54.18194824 C98.62281698 54.19616148 90.00993044 54.2014199 81.39704132 54.20775604 C69.32820139 54.21746872 57.25940928 54.23662423 45.19056702 54.25396729 Z M-37.80943298 162.25396729 C-37.80943298 224.95396729 -37.80943298 287.65396729 -37.80943298 352.25396729 C-28.89943298 352.25396729 -19.98943298 352.25396729 -10.80943298 352.25396729 C-10.80943298 289.55396729 -10.80943298 226.85396729 -10.80943298 162.25396729 C-19.71943298 162.25396729 -28.62943298 162.25396729 -37.80943298 162.25396729 Z " fill="#057FBB" transform="translate(133.80943298339844,56.74603271484375)"/>
<path d="M0 0 C0.69353805 -0.00170885 1.3870761 -0.0034177 2.10163045 -0.00517833 C4.42481279 -0.00847176 6.7477061 0.00252789 9.07086182 0.01345825 C10.73645521 0.0140224 12.40204911 0.01370574 14.06764221 0.01257324 C18.59003188 0.01199886 23.1123157 0.023767 27.63468075 0.03772116 C32.36057437 0.05021428 37.08647035 0.0513979 41.81237793 0.05377197 C50.76188309 0.05999091 59.71133945 0.07640734 68.66082311 0.09647095 C78.84934879 0.11881707 89.03787679 0.12982014 99.22642088 0.13986182 C120.18533729 0.16077319 141.14420976 0.19595723 162.10308838 0.24050903 C162.43308838 0.90050903 162.76308838 1.56050903 163.10308838 2.24050903 C106.67308838 2.57050903 50.24308838 2.90050903 -7.89691162 3.24050903 C-9.04386967 5.53442513 -9.02029814 6.80388053 -9.01716614 9.35333252 C-9.0185408 10.21432556 -9.01991547 11.0753186 -9.02133179 11.96240234 C-9.01773651 12.90898712 -9.01414124 13.8555719 -9.01043701 14.83084106 C-9.01058304 15.82599731 -9.01072906 16.82115356 -9.01087952 17.84646606 C-9.01018093 21.14710647 -9.00239106 24.44769095 -8.99456787 27.74832153 C-8.9927035 30.03232797 -8.99127969 32.31633481 -8.99028015 34.6003418 C-8.98645649 40.62062681 -8.97662748 46.64088782 -8.96557617 52.66116333 C-8.95535881 58.80088984 -8.95078183 64.94062022 -8.94573975 71.08035278 C-8.9350051 83.13374877 -8.91793047 95.18712691 -8.89691162 107.24050903 C-8.23691162 107.24050903 -7.57691162 107.24050903 -6.89691162 107.24050903 C-6.89691162 107.90050903 -6.89691162 108.56050903 -6.89691162 109.24050903 C-35.27691162 109.24050903 -63.65691162 109.24050903 -92.89691162 109.24050903 C-92.89691162 206.59050903 -92.89691162 303.94050903 -92.89691162 404.24050903 C-93.55691162 404.24050903 -94.21691162 404.24050903 -94.89691162 404.24050903 C-96.12555935 401.78321357 -96.02335881 400.18825018 -96.02554607 397.43972778 C-96.02877052 396.41982758 -96.03199497 395.39992737 -96.03531712 394.34912109 C-96.03299422 392.65567062 -96.03299422 392.65567062 -96.03062439 390.92800903 C-96.03288995 389.73531403 -96.0351555 388.54261902 -96.03748971 387.31378174 C-96.04274239 383.99288426 -96.04347163 380.67204072 -96.04229534 377.35114288 C-96.04209187 373.7737336 -96.04760487 370.1963325 -96.05235291 366.618927 C-96.06067136 359.60670151 -96.06340827 352.59448442 -96.06396528 345.58225441 C-96.06443982 339.88533025 -96.06649143 334.18840887 -96.06966591 328.4914856 C-96.07847526 312.35487352 -96.08308477 296.2182681 -96.08233543 280.08165359 C-96.08229548 279.21110714 -96.08225552 278.34056068 -96.08221436 277.44363403 C-96.08217347 276.57203014 -96.08213259 275.70042625 -96.08209047 274.80241013 C-96.08168378 260.66805014 -96.09125837 246.53371676 -96.10535272 232.39936447 C-96.11969628 217.9012305 -96.12662404 203.40310952 -96.12575895 188.90496826 C-96.1254263 180.75931678 -96.12820269 172.61369321 -96.138937 164.4680481 C-96.14801541 157.53432178 -96.15023922 150.60063602 -96.14342757 143.66690636 C-96.14014901 140.12645043 -96.14015344 136.58607243 -96.14878082 133.04562378 C-96.15802037 129.21471551 -96.15190484 125.38392274 -96.14414978 121.55300903 C-96.14929334 120.42404205 -96.15443691 119.29507507 -96.15973634 118.13189697 C-96.15283814 116.60204666 -96.15283814 116.60204666 -96.14580059 115.04129028 C-96.14601796 114.15610718 -96.14623533 113.27092407 -96.14645928 112.35891724 C-95.89691162 110.24050903 -95.89691162 110.24050903 -93.89691162 108.24050903 C-90.13655169 106.82662068 -86.15053687 107.10735129 -82.19085693 107.12698364 C-81.01553972 107.12680284 -81.01553972 107.12680284 -79.81647873 107.12661839 C-77.28596892 107.1273634 -74.75553322 107.13497288 -72.22503662 107.14285278 C-70.6604211 107.14432348 -69.09580508 107.1453434 -67.53118896 107.14590454 C-61.73642234 107.15114265 -55.94166625 107.16510388 -50.14691162 107.17800903 C-37.19441162 107.19863403 -24.24191162 107.21925903 -10.89691162 107.24050903 C-10.89691162 72.59050903 -10.89691162 37.94050903 -10.89691162 2.24050903 C-6.62713919 0.10562282 -4.6833473 -0.00694859 0 0 Z " fill="#090C0E" transform="translate(133.89691162109375,56.759490966796875)"/>
<path d="M0 0 C11.22 0 22.44 0 34 0 C34 1.65 34 3.3 34 5 C33.34 5.33 32.68 5.66 32 6 C32.00092179 6.95767241 32.00184359 7.91534483 32.00279331 8.90203762 C32.02496032 32.16880726 32.04141026 55.43557553 32.05181217 78.70235348 C32.05697573 89.95383516 32.06401956 101.20530989 32.07543945 112.45678711 C32.08538447 122.2597854 32.09185299 132.06277865 32.09408849 141.86578184 C32.09539591 147.05980367 32.09848371 152.25381107 32.10573006 157.44782829 C32.11248741 162.33063221 32.11461755 167.21341568 32.11310768 172.09622383 C32.11338414 173.89380631 32.11539095 175.69138944 32.11920547 177.4889679 C32.12413828 179.93215962 32.12299983 182.37527287 32.12025452 184.81846619 C32.12316736 185.53926973 32.1260802 186.26007327 32.12908131 187.00271934 C32.11412121 191.88587879 32.11412121 191.88587879 31 193 C20.77 193 10.54 193 0 193 C0 129.31 0 65.62 0 0 Z M3 2 C3 64.7 3 127.4 3 192 C11.91 192 20.82 192 30 192 C30 129.3 30 66.6 30 2 C21.09 2 12.18 2 3 2 Z " fill="#000000" transform="translate(93,217)"/>
<path d="M0 0 C26.07 0 52.14 0 79 0 C79 0.33 79 0.66 79 1 C54.25 1.33 29.5 1.66 4 2 C3.26540853 5.67295736 2.87534033 8.39380261 2.87695217 12.03495502 C2.87496112 13.03071122 2.87297007 14.02646741 2.87091869 15.05239803 C2.87383153 16.13897219 2.87674437 17.22554635 2.87974548 18.345047 C2.87889106 19.50496444 2.87803663 20.66488188 2.87715632 21.85994834 C2.87579431 25.07531199 2.87891842 28.29063531 2.88393438 31.5059942 C2.88825361 34.97492303 2.88679141 38.44384999 2.8860321 41.91278076 C2.88550781 47.92155719 2.88864481 53.93032276 2.89426994 59.93909645 C2.90239765 68.62676951 2.90500147 77.31443733 2.90625793 86.00211378 C2.90844645 100.09735943 2.91510112 114.19259929 2.92456055 128.2878418 C2.93373983 141.97989879 2.94081814 155.67195422 2.94506836 169.36401367 C2.94546244 170.63002287 2.94546244 170.63002287 2.94586449 171.92160801 C2.94716953 176.15574699 2.94843324 180.38988599 2.94967639 184.62402499 C2.96004278 219.74935416 2.97773001 254.87467645 3 290 C8.28 290 13.56 290 19 290 C19 290.33 19 290.66 19 291 C12.73 291 6.46 291 0 291 C0 194.97 0 98.94 0 0 Z " fill="#154997" transform="translate(41,168)"/>
<path d="M0 0 C20.46 0 40.92 0 62 0 C62 0.66 62 1.32 62 2 C63.32 2 64.64 2 66 2 C66 3.65 66 5.3 66 7 C66.66 7 67.32 7 68 7 C67.67 8.32 67.34 9.64 67 11 C66.401875 10.05125 65.80375 9.1025 65.1875 8.125 C63.18437474 4.86035803 63.18437474 4.86035803 60 3 C40.86 2.67 21.72 2.34 2 2 C2 81.86 2 161.72 2 244 C1.34 244 0.68 244 0 244 C0 244.66 0 245.32 0 246 C-44.55 246 -89.1 246 -135 246 C-135.33 245.34 -135.66 244.68 -136 244 C-135.31124346 244.00184359 -134.62248692 244.00368717 -133.91285896 244.00558662 C-117.17169235 244.04971106 -100.43054411 244.08282992 -83.68933296 244.10362434 C-75.59348592 244.11394706 -67.49767764 244.12802632 -59.40185547 244.15087891 C-52.34743438 244.17078241 -45.29304136 244.18370919 -38.23859298 244.18817699 C-34.50159792 244.19078954 -30.76468316 244.19695067 -27.02771378 244.21146011 C-22.86104993 244.22750743 -18.69452665 244.22798165 -14.52783203 244.22705078 C-13.28202362 244.23424133 -12.03621521 244.24143188 -10.75265503 244.24884033 C-9.05728607 244.24471634 -9.05728607 244.24471634 -7.32766724 244.24050903 C-5.8481895 244.24327441 -5.8481895 244.24327441 -4.33882332 244.24609566 C-1.80833825 244.22782483 -1.80833825 244.22782483 0 242 C0.2994101 240.13533547 0.2994101 240.13533547 0.24609566 237.97450066 C0.25007775 237.12753683 0.25405985 236.280573 0.25816262 235.40794361 C0.25233693 234.4721598 0.24651125 233.536376 0.24050903 232.57223511 C0.24221788 231.58230659 0.24392673 230.59237807 0.24568737 229.57245171 C0.24899829 226.23426412 0.23795223 222.89627473 0.22705078 219.55810547 C0.22648701 217.17360438 0.22680255 214.78910294 0.22793579 212.40460205 C0.22845177 206.58817437 0.21975571 200.77181229 0.20706047 194.95539962 C0.19278447 188.18918202 0.18977198 181.42297386 0.18748413 174.6567433 C0.18310386 162.58967045 0.16978578 150.52262459 0.15087891 138.45556641 C0.13252868 126.73160945 0.11836799 115.00765982 0.10986328 103.28369141 C0.10907511 102.20020018 0.10907511 102.20020018 0.10827102 101.09482025 C0.105661 97.47121632 0.10313357 93.84761234 0.10064721 90.22400832 C0.07990438 60.14931528 0.04302907 30.07467178 0 0 Z " fill="#000000" transform="translate(177,217)"/>
<path d="M0 0 C0.66 0 1.32 0 2 0 C2 62.04 2 124.08 2 188 C1.01 188.33 0.02 188.66 -1 189 C-1.02332612 164.50511696 -1.04097776 140.01023557 -1.05181217 115.51534367 C-1.05697574 104.1427937 -1.0640196 92.77025062 -1.07543945 81.39770508 C-1.08538443 71.48923136 -1.09185298 61.58076263 -1.09408849 51.67228407 C-1.09539592 46.42237095 -1.09848376 41.17247211 -1.10573006 35.92256355 C-1.11248734 30.98723004 -1.11461756 26.05191675 -1.11310768 21.11657906 C-1.11338414 19.2996459 -1.11539099 17.4827121 -1.11920547 15.66578293 C-1.12413818 13.19631711 -1.12299987 10.72692894 -1.12025452 8.25746155 C-1.12316736 7.52887611 -1.1260802 6.80029067 -1.12908131 6.04962689 C-1.11412121 1.11412121 -1.11412121 1.11412121 0 0 Z " fill="#B2BBC1" transform="translate(125,222)"/>
<path d="M0 0 C0 0.33 0 0.66 0 1 C-57.42 1 -114.84 1 -174 1 C-174 35.32 -174 69.64 -174 105 C-174.66 105 -175.32 105 -176 105 C-176.85302974 99.0918152 -177.14842006 93.36767805 -177.14526367 87.40283203 C-177.14862228 86.4782872 -177.1519809 85.55374237 -177.15544128 84.60118103 C-177.16487874 81.57004425 -177.16689002 78.53896302 -177.16796875 75.5078125 C-177.17118375 73.39411395 -177.17454801 71.28041562 -177.17805481 69.16671753 C-177.18402612 64.75046268 -177.18589651 60.33422735 -177.18530273 55.91796875 C-177.18520063 50.24831174 -177.1989115 44.57877861 -177.21607494 38.90915108 C-177.22716226 34.55127379 -177.22922304 30.19342691 -177.22869301 25.83553696 C-177.22987581 23.74387048 -177.23431428 21.65220329 -177.24202538 19.56055069 C-177.25176955 16.64721025 -177.24897063 13.7341452 -177.24291992 10.82080078 C-177.24853943 9.95223953 -177.25415894 9.08367828 -177.25994873 8.188797 C-177.22832304 2.22832304 -177.22832304 2.22832304 -175 0 C-172.09450722 -0.26450634 -172.09450722 -0.26450634 -168.29458618 -0.28520203 C-167.59741214 -0.29169999 -166.9002381 -0.29819796 -166.18193758 -0.30489284 C-163.83430803 -0.32431514 -161.48686108 -0.32946252 -159.13916016 -0.3347168 C-157.4606419 -0.34564665 -155.78212906 -0.35743665 -154.10362244 -0.37002563 C-149.53545382 -0.40169607 -144.96730819 -0.42089502 -140.39906359 -0.43764853 C-135.62427154 -0.45696509 -130.84954374 -0.48670596 -126.07479858 -0.51509094 C-118.05314429 -0.56120311 -110.03148208 -0.59958351 -102.00976562 -0.63305664 C-92.73142067 -0.67183353 -83.45317907 -0.72109762 -74.17491877 -0.77638692 C-65.25822068 -0.8294174 -56.34150224 -0.87660389 -47.4247551 -0.92057228 C-43.62659016 -0.93930927 -39.82844075 -0.95981095 -36.03029251 -0.98166466 C-31.55703759 -1.00702403 -27.08378828 -1.02717898 -22.6104908 -1.043293 C-20.96735262 -1.05000431 -19.32422048 -1.05845081 -17.68110085 -1.06874657 C-15.44051672 -1.0824819 -13.19999776 -1.08993216 -10.9593811 -1.0957489 C-9.70465311 -1.1014474 -8.44992512 -1.1071459 -7.15717506 -1.11301708 C-4.55732258 -1.01995042 -2.46351898 -0.77762745 0 0 Z " fill="#8ABBD2" transform="translate(301,59)"/>
<path d="M0 0 C1.32 0.66 2.64 1.32 4 2 C3.525625 2.598125 3.05125 3.19625 2.5625 3.8125 C0.83534256 6.00382924 0.83534256 6.00382924 0 9 C42.87603639 8.4798644 42.87603639 8.4798644 85.7456665 7.61422729 C87.75722725 7.56388333 89.76899832 7.52217596 91.78076172 7.48071289 C92.95268066 7.4471167 94.12459961 7.41352051 95.33203125 7.37890625 C96.29858643 7.3538501 97.2651416 7.32879395 98.26098633 7.30297852 C101.37439654 6.95858578 104.04297169 6.0082117 107 5 C109.7734375 5.2421875 109.7734375 5.2421875 112.375 5.875 C113.24898438 6.07867187 114.12296875 6.28234375 115.0234375 6.4921875 C115.67570312 6.65976562 116.32796875 6.82734375 117 7 C117 7.66 117 8.32 117 9 C112.38 9 107.76 9 103 9 C103 9.66 103 10.32 103 11 C102.34 11 101.68 11 101 11 C101 11.66 101 12.32 101 13 C90.11 13 79.22 13 68 13 C68 12.34 68 11.68 68 11 C53.48 11 38.96 11 24 11 C23.67 11.66 23.34 12.32 23 13 C23 12.34 23 11.68 23 11 C18.65815798 11.18464366 18.65815798 11.18464366 15 13 C10.92922882 13.34892324 7.80024093 12.41404314 4 11 C4 11.66 4 12.32 4 13 C3.34 13 2.68 13 2 13 C1.67 12.34 1.34 11.68 1 11 C-1.02463255 10.34786708 -1.02463255 10.34786708 -3 10 C-3.36923077 3.47692308 -3.36923077 3.47692308 -1.5 1.0625 C-1.005 0.711875 -0.51 0.36125 0 0 Z " fill="#4FBFBF" transform="translate(187,309)"/>
<path d="M0 0 C0.66 0 1.32 0 2 0 C3.67326932 2.96756484 4.32948092 5.36178 4.6328125 8.74609375 C4.71692383 9.65866943 4.80103516 10.57124512 4.88769531 11.51147461 C4.96600586 12.47706299 5.04431641 13.44265137 5.125 14.4375 C5.2084668 15.43595947 5.29193359 16.43441895 5.37792969 17.46313477 C6.26884819 28.65507123 6.06861914 39.49704718 5.25 50.6875 C5.18844727 51.65034912 5.12689453 52.61319824 5.06347656 53.60522461 C4.57246787 59.53858593 3.34345932 64.40092304 0.88598633 69.83178711 C-0.32954214 72.80646563 -0.55651169 75.83222639 -1 79 C-1.45890625 79.60585937 -1.9178125 80.21171875 -2.390625 80.8359375 C-4.27426488 83.36879307 -5.159457 85.77222027 -6.1875 88.75 C-6.70376953 90.22726563 -6.70376953 90.22726563 -7.23046875 91.734375 C-7.48441406 92.48203125 -7.73835938 93.2296875 -8 94 C-8.66 94 -9.32 94 -10 94 C-10.103125 94.763125 -10.20625 95.52625 -10.3125 96.3125 C-11.08199019 99.32050711 -11.87520826 99.87520826 -14 102 C-15.09166275 103.93330603 -15.09166275 103.93330603 -16 106 C-17.3265753 108.91846567 -18.66178904 110.81205966 -21 113 C-22.20302075 114.43061926 -23.40497423 115.86220958 -24.59375 117.3046875 C-27.0246686 120.23529492 -29.51579031 123.11456057 -32 126 C-32.734375 124.24609375 -32.734375 124.24609375 -33 122 C-31.453125 120.03515625 -31.453125 120.03515625 -29.25 118.0625 C-26.20247816 115.21107957 -24.00318424 112.69007623 -22 109 C-21 108 -20 107 -19 106 C-17.98812105 104.34051852 -16.9873454 102.67419438 -16 101 C-15.01 100.01 -15.01 100.01 -14 99 C-13.67 97.845 -13.34 96.69 -13 95.5 C-12 92 -12 92 -10 90 C-9.60235737 88.01178687 -9.26224651 86.01055661 -9 84 C-8.34 84 -7.68 84 -7 84 C-7 82.35 -7 80.7 -7 79 C-6.01 79 -5.02 79 -4 79 C-4 77.02 -4 75.04 -4 73 C-3.34 73 -2.68 73 -2 73 C-2 70.69 -2 68.38 -2 66 C-1.34 66 -0.68 66 0 66 C-0.02320313 65.08476562 -0.04640625 64.16953125 -0.0703125 63.2265625 C-0.08835937 62.03804687 -0.10640625 60.84953125 -0.125 59.625 C-0.14820313 58.44164062 -0.17140625 57.25828125 -0.1953125 56.0390625 C0 53 0 53 2 51 C2.17525055 48.20315203 2.23143189 45.5067192 2.1953125 42.7109375 C2.1924826 41.89251373 2.18965271 41.07408997 2.18673706 40.23086548 C2.17552532 37.61209607 2.15041929 34.99366636 2.125 32.375 C2.11497147 30.60156743 2.1058454 28.82812951 2.09765625 27.0546875 C2.07558278 22.70299374 2.04104644 18.3515545 2 14 C1.34 14 0.68 14 0 14 C0 9.38 0 4.76 0 0 Z " fill="#121F1F" transform="translate(411,156)"/>
<path d="M0 0 C4.62 0 9.24 0 14 0 C14 1.65 14 3.3 14 5 C13.01 5.495 13.01 5.495 12 6 C12 67.38 12 128.76 12 192 C11.34 192.33 10.68 192.66 10 193 C10 129.64 10 66.28 10 1 C6.7 1 3.4 1 0 1 C0 0.67 0 0.34 0 0 Z " fill="#09070C" transform="translate(113,217)"/>
<path d="M0 0 C0.66 0 1.32 0 2 0 C2 1.65 2 3.3 2 5 C2.99 5.33 3.98 5.66 5 6 C4.67 10.62 4.34 15.24 4 20 C4.66 20 5.32 20 6 20 C7.23180134 23.69540402 7.12412112 27.10303378 7.09765625 30.94921875 C7.0962413 31.72183548 7.09482635 32.49445221 7.09336853 33.29048157 C7.08777466 35.75619389 7.07522333 38.22181515 7.0625 40.6875 C7.05748421 42.36002473 7.05292144 44.03255088 7.04882812 45.70507812 C7.03780724 49.80342046 7.02054684 53.90169479 7 58 C6.01 58.495 6.01 58.495 5 59 C4.53045739 62.04581269 4.53045739 62.04581269 4.375 65.5625 C4.30023438 66.76003906 4.22546875 67.95757812 4.1484375 69.19140625 C4.09945313 70.11824219 4.05046875 71.04507813 4 72 C3.34 72 2.68 72 2 72 C2 74.31 2 76.62 2 79 C1.34 79 0.68 79 0 79 C0 80.98 0 82.96 0 85 C-0.99 85 -1.98 85 -3 85 C-3 86.65 -3 88.3 -3 90 C-3.66 90 -4.32 90 -5 90 C-4.938125 90.928125 -4.87625 91.85625 -4.8125 92.8125 C-5 96 -5 96 -6.375 97.875 C-8 99 -8 99 -10 99 C-9.11943898 94.03683789 -8.17748793 90.10101019 -5.625 85.75 C-1.54136433 78.17473501 -0.7531279 69.28100763 0.59863281 60.88256836 C1 59 1 59 2 58 C2.10112813 55.06633032 2.1396904 52.15669827 2.1328125 49.22265625 C2.13376923 48.34097275 2.13472595 47.45928925 2.13571167 46.55088806 C2.13639359 44.68211801 2.13453851 42.81334561 2.13037109 40.94458008 C2.12502932 38.07823372 2.13031242 35.21204453 2.13671875 32.34570312 C2.13605785 30.53385382 2.13477643 28.72200461 2.1328125 26.91015625 C2.13483673 26.0486647 2.13686096 25.18717316 2.13894653 24.29957581 C2.24815079 20.01457755 2.24815079 20.01457755 1 16 C0.7677354 13.28737884 0.58063765 10.59226874 0.4375 7.875 C0.37272461 6.74384766 0.37272461 6.74384766 0.30664062 5.58984375 C0.2005168 3.72678112 0.09974999 1.86341476 0 0 Z " fill="#45D3D8" transform="translate(407,150)"/>
<path d="M0 0 C1.4835001 0.42257276 2.96176424 0.86356322 4.4375 1.3125 C5.67306641 1.67794922 5.67306641 1.67794922 6.93359375 2.05078125 C7.61550781 2.36402344 8.29742187 2.67726562 9 3 C9.33 3.99 9.66 4.98 10 6 C11.32 6 12.64 6 14 6 C14 6.66 14 7.32 14 8 C14.99 8.33 15.98 8.66 17 9 C17 9.66 17 10.32 17 11 C17.72703125 11.21140625 18.4540625 11.4228125 19.203125 11.640625 C22.80941653 13.39340356 24.37083446 15.54052165 26.75 18.75 C27.52859375 19.77609375 28.3071875 20.8021875 29.109375 21.859375 C31.03231716 25.05368387 31.66940968 27.3194278 32 31 C32.99 31.33 33.98 31.66 35 32 C36.71955516 34.72612404 37.43064586 37.42446812 38.0625 40.5625 C38.58847257 43.14020029 39.16502551 45.49507652 40 48 C40.23190945 51.78772442 40.18516948 55.58091877 40.1875 59.375 C40.19974609 60.4165625 40.21199219 61.458125 40.22460938 62.53125 C40.22654297 63.53929687 40.22847656 64.54734375 40.23046875 65.5859375 C40.23457764 66.5042334 40.23868652 67.4225293 40.24291992 68.36865234 C39.9774557 71.24420349 39.16930373 73.37361125 38 76 C37.63879337 77.34699972 37.30310189 78.70124774 37 80.0625 C36.31429457 82.9413744 35.50319656 85.42309162 34 88 C33.34 88 32.68 88 32 88 C32.020625 88.804375 32.04125 89.60875 32.0625 90.4375 C32 93 32 93 31 94 C32.65 94.33 34.3 94.66 36 95 C36 95.66 36 96.32 36 97 C32.04 97 28.08 97 24 97 C24 96.01 24 95.02 24 94 C25.65 94 27.3 94 29 94 C28.938125 93.071875 28.87625 92.14375 28.8125 91.1875 C29 88 29 88 30.46875 86.59375 C32.46460848 84.51642791 32.48203535 83.14791214 32.6875 80.3125 C32.75324219 79.50425781 32.81898438 78.69601563 32.88671875 77.86328125 C32.92410156 77.24839844 32.96148437 76.63351563 33 76 C33.99 76 34.98 76 36 76 C36 73.36 36 70.72 36 68 C36.66 68 37.32 68 38 68 C38 61.73 38 55.46 38 49 C37.34 49 36.68 49 36 49 C36 46.36 36 43.72 36 41 C35.34 41 34.68 41 34 41 C33.06576355 37.98968256 32.95550089 37.13349732 34 34 C33.360625 33.690625 32.72125 33.38125 32.0625 33.0625 C30 32 30 32 29 31 C28.95919217 29.00041636 28.95745644 26.99954746 29 25 C28.34 25 27.68 25 27 25 C27 24.34 27 23.68 27 23 C26.01 22.67 25.02 22.34 24 22 C24 21.01 24 20.02 24 19 C22.68 18.67 21.36 18.34 20 18 C20 16.68 20 15.36 20 14 C17.525 13.505 17.525 13.505 15 13 C15 12.01 15 11.02 15 10 C13.88625 9.38125 12.7725 8.7625 11.625 8.125 C9.36093785 6.86718769 7.85384858 5.85384858 6 4 C4.01178687 3.60235737 2.01055661 3.26224651 0 3 C0 2.01 0 1.02 0 0 Z " fill="#040606" transform="translate(261,170)"/>
<path d="M0 0 C0.66 0 1.32 0 2 0 C2 18.81 2 37.62 2 57 C24.11 57 46.22 57 69 57 C69 57.66 69 58.32 69 59 C60.1511761 59.02312589 51.30236253 59.04091634 42.45351505 59.05181217 C38.34505715 59.05704046 34.23661986 59.06413713 30.12817383 59.07543945 C26.16653172 59.08627025 22.20490948 59.09227724 18.24325371 59.09487724 C16.72851689 59.09673114 15.21378121 59.1003511 13.69905281 59.10573006 C11.58458187 59.11294307 9.47019406 59.11399083 7.35571289 59.11352539 C5.54702477 59.11685631 5.54702477 59.11685631 3.70179749 59.12025452 C1 59 1 59 0 58 C-0.09376053 56.18944975 -0.1174411 54.37522799 -0.11352539 52.56225586 C-0.11344986 51.40112778 -0.11337433 50.23999969 -0.11329651 49.04368591 C-0.10813522 47.780168 -0.10297394 46.51665009 -0.09765625 45.21484375 C-0.0962413 43.92888809 -0.09482635 42.64293243 -0.09336853 41.31800842 C-0.08954418 37.89356557 -0.07971462 34.46916491 -0.06866455 31.04473877 C-0.05844864 27.55261811 -0.05387053 24.06049066 -0.04882812 20.56835938 C-0.03809227 13.71222222 -0.02101684 6.85611313 0 0 Z " fill="#99CACA" transform="translate(176,109)"/>
<path d="M0 0 C0.33 0 0.66 0 1 0 C1.75577362 12.36215546 2.14057575 24.65906426 2.09765625 37.04296875 C2.09578311 38.67491105 2.09436347 40.30685393 2.09336853 41.938797 C2.08961369 46.16195322 2.07984675 50.38507312 2.06866455 54.60821533 C2.05829598 58.94648752 2.05383839 63.28476578 2.04882812 67.62304688 C2.03821547 76.08204762 2.02122772 84.54101925 2 93 C0.515 93.495 0.515 93.495 -1 94 C-1.02313322 82.03923515 -1.04092011 70.07847558 -1.05181217 58.11769295 C-1.05703885 52.56429379 -1.06413261 47.0109099 -1.07543945 41.45751953 C-1.08627595 36.10184453 -1.09227846 30.74618423 -1.09487724 25.39049911 C-1.09673011 23.34349206 -1.10034809 21.29648584 -1.10573006 19.24948502 C-1.11295057 16.3904265 -1.11399051 13.5314294 -1.11352539 10.67236328 C-1.11712067 9.81928589 -1.12071594 8.9662085 -1.12442017 8.08728027 C-1.11405216 2.22810432 -1.11405216 2.22810432 0 0 Z " fill="#A8B4BC" transform="translate(125,317)"/>
<path d="M0 0 C1.32 0.66 2.64 1.32 4 2 C3.525625 2.598125 3.05125 3.19625 2.5625 3.8125 C0.83534256 6.00382924 0.83534256 6.00382924 0 9 C22.44 9 44.88 9 68 9 C68 9.66 68 10.32 68 11 C53.48 11 38.96 11 24 11 C23.67 11.66 23.34 12.32 23 13 C23 12.34 23 11.68 23 11 C18.65815798 11.18464366 18.65815798 11.18464366 15 13 C10.92922882 13.34892324 7.80024093 12.41404314 4 11 C4 11.66 4 12.32 4 13 C3.34 13 2.68 13 2 13 C1.67 12.34 1.34 11.68 1 11 C-1.02463255 10.34786708 -1.02463255 10.34786708 -3 10 C-3.36923077 3.47692308 -3.36923077 3.47692308 -1.5 1.0625 C-1.005 0.711875 -0.51 0.36125 0 0 Z " fill="#F6FAFB" transform="translate(187,309)"/>
<path d="M0 0 C0.99 0 1.98 0 3 0 C2.7438709 2.08519216 2.46951265 4.1681505 2.1875 6.25 C2.03667969 7.41015625 1.88585937 8.5703125 1.73046875 9.765625 C0.97826153 13.09625378 0.09451531 14.40280102 -2 17 C-2.79022474 18.89231076 -3.51828577 20.81158636 -4.1875 22.75 C-4.53167969 23.73484375 -4.87585938 24.7196875 -5.23046875 25.734375 C-5.48441406 26.48203125 -5.73835938 27.2296875 -6 28 C-6.66 28 -7.32 28 -8 28 C-8.103125 28.763125 -8.20625 29.52625 -8.3125 30.3125 C-9.08199019 33.32050711 -9.87520826 33.87520826 -12 36 C-13.09166275 37.93330603 -13.09166275 37.93330603 -14 40 C-15.3265753 42.91846567 -16.66178904 44.81205966 -19 47 C-20.20302075 48.43061926 -21.40497423 49.86220958 -22.59375 51.3046875 C-25.0246686 54.23529492 -27.51579031 57.11456057 -30 60 C-30.734375 58.24609375 -30.734375 58.24609375 -31 56 C-29.453125 54.03515625 -29.453125 54.03515625 -27.25 52.0625 C-24.20247816 49.21107957 -22.00318424 46.69007623 -20 43 C-19 42 -18 41 -17 40 C-15.98812105 38.34051852 -14.9873454 36.67419438 -14 35 C-13.34 34.34 -12.68 33.68 -12 33 C-11.67 31.845 -11.34 30.69 -11 29.5 C-10 26 -10 26 -8 24 C-7.60235737 22.01178687 -7.26224651 20.01055661 -7 18 C-6.34 18 -5.68 18 -5 18 C-5 16.35 -5 14.7 -5 13 C-4.01 13 -3.02 13 -2 13 C-2 11.02 -2 9.04 -2 7 C-1.34 7 -0.68 7 0 7 C0 4.69 0 2.38 0 0 Z " fill="#080A09" transform="translate(409,222)"/>
<path d="M0 0 C0.66 0 1.32 0 2 0 C2 0.66 2 1.32 2 2 C2.66 2 3.32 2 4 2 C4.268125 3.11375 4.53625 4.2275 4.8125 5.375 C5.65809019 9.21840951 5.65809019 9.21840951 9 11 C9.1875 14.625 9.1875 14.625 9 18 C9.66 18 10.32 18 11 18 C11 20.64 11 23.28 11 26 C11.66 26 12.32 26 13 26 C13 32.27 13 38.54 13 45 C12.34 45 11.68 45 11 45 C11 47.64 11 50.28 11 53 C10.01 53 9.02 53 8 53 C8.03480469 53.62648437 8.06960938 54.25296875 8.10546875 54.8984375 C8.13253906 55.71570313 8.15960938 56.53296875 8.1875 57.375 C8.22230469 58.18710938 8.25710938 58.99921875 8.29296875 59.8359375 C8.19628906 60.55007812 8.09960938 61.26421875 8 62 C7.01 62.66 6.02 63.32 5 64 C6.81192974 50.44907865 6.81192974 50.44907865 8.125 45.375 C10.70907572 34.40793849 9.66985099 21.23775025 5 11 C4.47535156 10.48695313 3.95070313 9.97390625 3.41015625 9.4453125 C2 8 2 8 1.8125 5.3125 C1.874375 4.549375 1.93625 3.78625 2 3 C1.34 3 0.68 3 0 3 C0 2.01 0 1.02 0 0 Z " fill="#92BEBC" transform="translate(286,193)"/>
<path d="M0 0 C20.46 0 40.92 0 62 0 C62 0.66 62 1.32 62 2 C63.32 2 64.64 2 66 2 C66 3.65 66 5.3 66 7 C66.66 7 67.32 7 68 7 C67.67 8.32 67.34 9.64 67 11 C66.401875 10.05125 65.80375 9.1025 65.1875 8.125 C63.18437474 4.86035803 63.18437474 4.86035803 60 3 C57.35288242 2.67126012 57.35288242 2.67126012 54.33520508 2.68115234 C52.59373955 2.65134781 52.59373955 2.65134781 50.8170929 2.62094116 C49.56389755 2.60938995 48.31070221 2.59783875 47.01953125 2.5859375 C45.73640549 2.56657135 44.45327972 2.5472052 43.13127136 2.5272522 C39.7233905 2.47592708 36.31547014 2.43630368 32.90740967 2.39910889 C29.42840807 2.35907143 25.94957082 2.30797796 22.47070312 2.2578125 C15.64725551 2.16104893 8.82370242 2.07664561 2 2 C2 2.66 2 3.32 2 4 C1.34 3.67 0.68 3.34 0 3 C0 2.01 0 1.02 0 0 Z " fill="#0B0F1A" transform="translate(177,217)"/>
<path d="M0 0 C0.33 0 0.66 0 1 0 C1.9266661 8.27366846 2.13309133 16.44131908 2.09765625 24.76171875 C2.0962413 26.03352493 2.09482635 27.30533112 2.09336853 28.61567688 C2.08875504 31.95778389 2.07980852 35.29981937 2.06866455 38.64190674 C2.05834004 42.06790558 2.05384753 45.49391188 2.04882812 48.91992188 C2.03785922 55.61330059 2.02116677 62.30664618 2 69 C1.34 69 0.68 69 0 69 C-1.12670521 61.78438738 -1.14468944 54.67590109 -1.1328125 47.3828125 C-1.13376923 46.08930878 -1.13472595 44.79580505 -1.13571167 43.46310425 C-1.13717745 40.74166656 -1.13506825 38.02026194 -1.13037109 35.29882812 C-1.12464023 31.80842562 -1.12798093 28.31809945 -1.13394356 24.82769966 C-1.13841602 21.49189773 -1.13529079 18.1561166 -1.1328125 14.8203125 C-1.13483673 13.56517853 -1.13686096 12.31004456 -1.13894653 11.01687622 C-1.13579437 9.86162445 -1.13264221 8.70637268 -1.12939453 7.51611328 C-1.12859894 6.49655548 -1.12780334 5.47699768 -1.12698364 4.42654419 C-1 2 -1 2 0 0 Z " fill="#9CABB7" transform="translate(125,95)"/>
<path d="M0 0 C0 3 0 3 -1.9375 5 C-2.618125 5.66 -3.29875 6.32 -4 7 C-4.33 7.99 -4.66 8.98 -5 10 C-5.66 10 -6.32 10 -7 10 C-7 10.66 -7 11.32 -7 12 C-8.375 13.625 -8.375 13.625 -10 15 C-10.66 15 -11.32 15 -12 15 C-12 16.32 -12 17.64 -12 19 C-12.66 19 -13.32 19 -14 19 C-14 19.66 -14 20.32 -14 21 C-14.66 21 -15.32 21 -16 21 C-16.2165625 21.8971875 -16.2165625 21.8971875 -16.4375 22.8125 C-16.8872439 24.56150404 -17.42892341 26.28677023 -18 28 C-18.66 28 -19.32 28 -20 28 C-20.33 29.32 -20.66 30.64 -21 32 C-22.32 32 -23.64 32 -25 32 C-25.103125 32.763125 -25.20625 33.52625 -25.3125 34.3125 C-26.06206532 37.242619 -26.88598833 37.97790188 -29 40 C-29 40.99 -29 41.98 -29 43 C-30.32 43 -31.64 43 -33 43 C-31.33170636 37.99511907 -28.49362639 33.36390016 -24.6484375 29.71875 C-22.132631 27.09563421 -20.14093253 24.09595408 -18.0625 21.125 C-11.71532896 12.08480137 -11.71532896 12.08480137 -9 9 C-8.34 9 -7.68 9 -7 9 C-6.9175 8.2575 -6.835 7.515 -6.75 6.75 C-5.79113195 3.23415048 -3.97054162 0 0 0 Z " fill="#040506" transform="translate(221,266)"/>
<path d="M0 0 C0.99 0.33 1.98 0.66 3 1 C3 5.29 3 9.58 3 14 C3.66 14 4.32 14 5 14 C5.02683987 16.97922593 5.04676037 19.95821295 5.0625 22.9375 C5.07087891 23.78763672 5.07925781 24.63777344 5.08789062 25.51367188 C5.09111328 26.32255859 5.09433594 27.13144531 5.09765625 27.96484375 C5.10289307 28.7137085 5.10812988 29.46257324 5.11352539 30.23413086 C5 32 5 32 4 33 C3.86457458 36.15240277 3.75202487 39.29776854 3.74609375 42.453125 C3.671875 44.4609375 3.671875 44.4609375 3 48 C0.45800781 49.72119141 0.45800781 49.72119141 -2 51 C-1.78633789 50.23123535 -1.57267578 49.4624707 -1.35253906 48.67041016 C0.8482351 40.10742131 1.39988037 32.18983902 1.25 23.375 C1.24484375 22.12332031 1.2396875 20.87164062 1.234375 19.58203125 C1.29831498 13.187996 1.29831498 13.187996 0 7 C-0.03954234 4.66700175 -0.04401732 2.33291811 0 0 Z " fill="#040608" transform="translate(357,165)"/>
<path d="M0 0 C2 1.8125 2 1.8125 4 4 C4 4.99 4 5.98 4 7 C4.66 7 5.32 7 6 7 C8.43160605 10.36683915 9 11.73350364 9 16 C9.66 16 10.32 16 11 16 C11.33773438 16.75925781 11.67546875 17.51851562 12.0234375 18.30078125 C12.46945312 19.29464844 12.91546875 20.28851563 13.375 21.3125 C13.81585938 22.29863281 14.25671875 23.28476563 14.7109375 24.30078125 C15.98242758 27.12745207 15.98242758 27.12745207 18 30 C18.44429438 32.04869074 18.81294195 34.11454293 19.125 36.1875 C19.29257812 37.27417969 19.46015625 38.36085937 19.6328125 39.48046875 C19.75398438 40.31191406 19.87515625 41.14335937 20 42 C19.01 42 18.02 42 17 42 C17 40.35 17 38.7 17 37 C16.34 37 15.68 37 15 37 C15 34.03 15 31.06 15 28 C13.68 27.34 12.36 26.68 11 26 C10 25 10 25 9.9375 21.9375 C9.9684375 20.4834375 9.9684375 20.4834375 10 19 C9.34 19 8.68 19 8 19 C8 18.34 8 17.68 8 17 C7.34 17 6.68 17 6 17 C6 14.69 6 12.38 6 10 C5.360625 9.773125 4.72125 9.54625 4.0625 9.3125 C2 8 2 8 1.25 5.375 C1.1675 4.59125 1.085 3.8075 1 3 C0.34 3 -0.32 3 -1 3 C-0.67 2.01 -0.34 1.02 0 0 Z " fill="#0C110F" transform="translate(392,113)"/>
<path d="M0 0 C0.99 0.33 1.98 0.66 3 1 C2.48455373 4.81430239 1.79433828 6.42061082 -1 9 C-1.495 9.825 -1.99 10.65 -2.5 11.5 C-3.85809938 13.76349896 -5.15951923 15.15951923 -7 17 C-7.433125 17.763125 -7.86625 18.52625 -8.3125 19.3125 C-10.13141573 22.20929171 -12.1665 24.20175746 -14.6953125 26.47265625 C-16.16757548 27.93540784 -16.16757548 27.93540784 -16.3671875 30.05859375 C-16.57601563 30.69925781 -16.78484375 31.33992188 -17 32 C-18.65212159 32.70193767 -20.32171022 33.36315965 -22 34 C-24.50576708 36.14510114 -24.50576708 36.14510114 -26.8125 38.625 C-27.60269531 39.44226563 -28.39289063 40.25953125 -29.20703125 41.1015625 C-29.79871094 41.72804688 -30.39039063 42.35453125 -31 43 C-31.99 42.67 -32.98 42.34 -34 42 C-33.55269531 41.63648438 -33.10539062 41.27296875 -32.64453125 40.8984375 C-29.5421181 38.31860567 -26.73438159 35.81594883 -24.25 32.625 C-23.5075 31.75875 -22.765 30.8925 -22 30 C-21.01 30 -20.02 30 -19 30 C-18.67 28.68 -18.34 27.36 -18 26 C-17.34 26 -16.68 26 -16 26 C-15.773125 25.278125 -15.54625 24.55625 -15.3125 23.8125 C-13.73073192 20.42299697 -11.7009863 18.57535903 -9 16 C-4.38205715 11.15679164 -2.22419631 6.28739293 0 0 Z " fill="#65C5CE" transform="translate(395,250)"/>
<path d="M0 0 C0.33 0 0.66 0 1 0 C0.67 6.93 0.34 13.86 0 21 C-0.66 21 -1.32 21 -2 21 C-2 22.98 -2 24.96 -2 27 C-2.99 27 -3.98 27 -5 27 C-5 28.65 -5 30.3 -5 32 C-5.66 32 -6.32 32 -7 32 C-6.938125 32.928125 -6.87625 33.85625 -6.8125 34.8125 C-7 38 -7 38 -8.375 39.875 C-10 41 -10 41 -12 41 C-11.11943898 36.03683789 -10.17748793 32.10101019 -7.625 27.75 C-3.54136433 20.17473501 -2.7531279 11.28100763 -1.40136719 2.88256836 C-1 1 -1 1 0 0 Z " fill="#2FC8D1" transform="translate(409,208)"/>
<path d="M0 0 C0.56976563 0.25136719 1.13953125 0.50273437 1.7265625 0.76171875 C0.3515625 2.26171875 0.3515625 2.26171875 -1.2734375 3.76171875 C-1.9334375 3.76171875 -2.5934375 3.76171875 -3.2734375 3.76171875 C-3.2734375 4.42171875 -3.2734375 5.08171875 -3.2734375 5.76171875 C-16.41629464 17.76171875 -16.41629464 17.76171875 -22.2734375 17.76171875 C-22.2734375 18.42171875 -22.2734375 19.08171875 -22.2734375 19.76171875 C-24.92082666 21.22234725 -26.16792084 21.76171875 -29.2734375 21.76171875 C-29.2734375 22.42171875 -29.2734375 23.08171875 -29.2734375 23.76171875 C-30.85543381 24.41082029 -32.43909474 25.05586569 -34.0234375 25.69921875 C-34.90515625 26.05886719 -35.786875 26.41851562 -36.6953125 26.7890625 C-38.88529854 27.61528451 -40.99242021 28.25541818 -43.2734375 28.76171875 C-40.88065036 24.77374018 -38.6063653 24.11575869 -34.2734375 22.76171875 C-33.7784375 22.26671875 -33.2834375 21.77171875 -32.7734375 21.26171875 C-31.2734375 19.76171875 -31.2734375 19.76171875 -28.5859375 18.88671875 C-24.34958973 17.44795913 -20.990052 15.2094285 -17.2734375 12.76171875 C-16.3040625 12.18421875 -15.3346875 11.60671875 -14.3359375 11.01171875 C-10.55748703 8.23571432 -7.56467071 4.96029014 -4.421875 1.4921875 C-2.2734375 -0.23828125 -2.2734375 -0.23828125 0 0 Z " fill="#0D0E0F" transform="translate(376.2734375,282.23828125)"/>
<path d="M0 0 C4.90776732 4.90776732 4.12693513 11.01811921 4.13671875 17.62695312 C4.13285156 18.51318359 4.12898438 19.39941406 4.125 20.3125 C4.12886719 21.21806641 4.13273437 22.12363281 4.13671875 23.05664062 C4.13542969 23.92095703 4.13414062 24.78527344 4.1328125 25.67578125 C4.13168457 26.45864502 4.13055664 27.24150879 4.12939453 28.0480957 C4 30 4 30 3 32 C2.77049681 34.204364 2.58924067 36.41392173 2.4375 38.625 C2.35371094 39.81351563 2.26992188 41.00203125 2.18359375 42.2265625 C2.09271484 43.59941406 2.09271484 43.59941406 2 45 C1.34 45 0.68 45 0 45 C-0.02685938 42.85423363 -0.04633088 40.70837355 -0.0625 38.5625 C-0.07410156 37.36753906 -0.08570313 36.17257813 -0.09765625 34.94140625 C0 32 0 32 1 31 C1.15582303 29.65984779 1.25044142 28.31241097 1.31640625 26.96484375 C1.35830078 26.15595703 1.40019531 25.34707031 1.44335938 24.51367188 C1.48267578 23.66353516 1.52199219 22.81339844 1.5625 21.9375 C1.60568359 21.08349609 1.64886719 20.22949219 1.69335938 19.34960938 C1.79976702 17.23327963 1.90041731 15.11666187 2 13 C1.34 13 0.68 13 0 13 C0 8.71 0 4.42 0 0 Z " fill="#5DC4C2" transform="translate(360,166)"/>
<path d="M0 0 C0.66 0 1.32 0 2 0 C2.02467917 5.23274388 2.04285003 10.46545403 2.05493164 15.69824219 C2.05996711 17.47917267 2.06679581 19.260099 2.07543945 21.04101562 C2.08753942 23.59766665 2.09323609 26.15426312 2.09765625 28.7109375 C2.10281754 29.50994476 2.10797882 30.30895203 2.11329651 31.13217163 C2.11387171 36.77225659 2.11387171 36.77225659 1 39 C0.34 39 -0.32 39 -1 39 C-1.02464849 33.60653012 -1.04283531 28.21309275 -1.05493164 22.81958008 C-1.05997231 20.98331125 -1.06680477 19.14704646 -1.07543945 17.31079102 C-1.08751672 14.67723599 -1.09323081 12.04373384 -1.09765625 9.41015625 C-1.10281754 8.58411392 -1.10797882 7.75807159 -1.11329651 6.90699768 C-1.11349205 4.93763632 -1.06204152 2.96838386 -1 1 C-0.67 0.67 -0.34 0.34 0 0 Z " fill="#AFB9BF" transform="translate(125,222)"/>
<path d="M0 0 C1.65 0 3.3 0 5 0 C5 1.32 5 2.64 5 4 C5.928125 4.0928125 5.928125 4.0928125 6.875 4.1875 C7.57625 4.455625 8.2775 4.72375 9 5 C9.71247732 6.6476038 10.37400383 8.31763529 11 10 C13.44308811 12.93170573 15.18268377 14.45466911 19 15 C18.67 16.65 18.34 18.3 18 20 C18.66 20 19.32 20 20 20 C20.28875 20.7425 20.5775 21.485 20.875 22.25 C21.82302644 24.56739797 22.84845911 26.77917115 24 29 C21 27.1875 21 27.1875 18 25 C18 24.01 18 23.02 18 22 C17.34 22 16.68 22 16 22 C15.75765625 21.45730469 15.5153125 20.91460937 15.265625 20.35546875 C13.31744294 16.19684935 11.88937624 13.59291749 8 11 C7.67 10.319375 7.34 9.63875 7 8.9375 C6.16019191 6.82710088 6.16019191 6.82710088 4 6.0625 C1.25013332 4.60163333 0.91166696 2.88694538 0 0 Z " fill="#6BBEBD" transform="translate(373,96)"/>
<path d="M0 0 C2.375 0.75 2.375 0.75 5 2 C5.66666667 3.33333333 6.33333333 4.66666667 7 6 C8.65204456 6.70211894 10.31923769 7.36971413 12 8 C12.99 9.485 12.99 9.485 14 11 C14.99 11.33 15.98 11.66 17 12 C17.4640625 13.2065625 17.4640625 13.2065625 17.9375 14.4375 C18.7121181 17.10886033 18.7121181 17.10886033 20.8125 17.875 C24.21761648 19.62620276 26.11286564 22.72071734 28 26 C28 26.66 28 27.32 28 28 C24.63362603 26.5572683 22.33497429 24.83532593 20 22 C20 20.68 20 19.36 20 18 C18.35 17.67 16.7 17.34 15 17 C15.33 15.68 15.66 14.36 16 13 C14.35 13 12.7 13 11 13 C11 11.68 11 10.36 11 9 C10.41734375 8.89558594 9.8346875 8.79117188 9.234375 8.68359375 C6.66354577 7.89706383 5.2659942 6.82434109 3.25 5.0625 C2.63640625 4.53785156 2.0228125 4.01320313 1.390625 3.47265625 C0 2 0 2 0 0 Z " fill="#090908" transform="translate(362,83)"/>
<path d="M0 0 C1.32 0.66 2.64 1.32 4 2 C3.525625 2.598125 3.05125 3.19625 2.5625 3.8125 C0.83534256 6.00382924 0.83534256 6.00382924 0 9 C7.59 9.33 15.18 9.66 23 10 C23 10.33 23 10.66 23 11 C21.2984375 11.2165625 21.2984375 11.2165625 19.5625 11.4375 C16.19222799 11.61171478 16.19222799 11.61171478 15 13 C10.92922882 13.34892324 7.80024093 12.41404314 4 11 C4 11.66 4 12.32 4 13 C3.34 13 2.68 13 2 13 C1.67 12.34 1.34 11.68 1 11 C-1.02463255 10.34786708 -1.02463255 10.34786708 -3 10 C-3.36923077 3.47692308 -3.36923077 3.47692308 -1.5 1.0625 C-1.005 0.711875 -0.51 0.36125 0 0 Z " fill="#9F9E9E" transform="translate(187,309)"/>
<path d="M0 0 C1.07765625 0.20367187 2.1553125 0.40734375 3.265625 0.6171875 C4.08546875 0.78476562 4.9053125 0.95234375 5.75 1.125 C5.75 1.785 5.75 2.445 5.75 3.125 C-10.75 3.125 -27.25 3.125 -44.25 3.125 C-44.25 2.795 -44.25 2.465 -44.25 2.125 C-42.73647949 2.095271 -42.73647949 2.095271 -41.19238281 2.06494141 C-37.44245804 1.98876664 -33.69291529 1.90006784 -29.94335938 1.80761719 C-28.32169141 1.76937642 -26.69994004 1.73451497 -25.078125 1.703125 C-22.74448883 1.65736743 -20.41142438 1.59939184 -18.078125 1.5390625 C-17.35506165 1.52751129 -16.63199829 1.51596008 -15.88702393 1.50405884 C-9.7582769 1.32508223 -6.1421646 -1.20172786 0 0 Z " fill="#3EAAC8" transform="translate(298.25,314.875)"/>
<path d="M0 0 C0.66 0.33 1.32 0.66 2 1 C1.01 2.485 1.01 2.485 0 4 C-0.34204167 5.98528892 -0.34204167 5.98528892 -0.4375 8.0625 C-0.623125 9.361875 -0.80875 10.66125 -1 12 C-1.99 12.66 -2.98 13.32 -4 14 C-4.309375 14.969375 -4.61875 15.93875 -4.9375 16.9375 C-6.10256196 20.29561976 -6.9526397 21.28585983 -10 23 C-10.66 23 -11.32 23 -12 23 C-10.79618552 20.50638429 -9.54571278 18.31856917 -8 16 C-7.67 15.01 -7.34 14.02 -7 13 C-6.34 13 -5.68 13 -5 13 C-5.103125 11.783125 -5.20625 10.56625 -5.3125 9.3125 C-5.34591521 5.54994773 -5.09330298 5.11196358 -2.5 2 C-1.675 1.34 -0.85 0.68 0 0 Z " fill="#6C9CA0" transform="translate(358,213)"/>
<path d="M0 0 C0.66 0 1.32 0 2 0 C2.33 5.61 2.66 11.22 3 17 C2.34 17.33 1.68 17.66 1 18 C0.53045739 21.04581269 0.53045739 21.04581269 0.375 24.5625 C0.30023438 25.76003906 0.22546875 26.95757812 0.1484375 28.19140625 C0.09945313 29.11824219 0.05046875 30.04507813 0 31 C-0.66 31 -1.32 31 -2 31 C-1.88162872 27.06710455 -1.75737207 23.13444334 -1.62768555 19.2019043 C-1.56312994 17.20696681 -1.5032217 15.21188071 -1.44335938 13.21679688 C-1.40146484 11.96318359 -1.35957031 10.70957031 -1.31640625 9.41796875 C-1.27974854 8.26063232 -1.24309082 7.1032959 -1.20532227 5.91088867 C-1 3 -1 3 0 0 Z " fill="#60DFE3" transform="translate(411,191)"/>
<path d="M0 0 C0.33 0 0.66 0 1 0 C1.19477739 1.62414378 1.38059458 3.24936423 1.5625 4.875 C1.66691406 5.77992188 1.77132813 6.68484375 1.87890625 7.6171875 C2 10 2 10 1 12 C0.34 12 -0.32 12 -1 12 C-0.979375 12.804375 -0.95875 13.60875 -0.9375 14.4375 C-1 17 -1 17 -2 18 C-0.35 18.33 1.3 18.66 3 19 C3 19.66 3 20.32 3 21 C-0.96 21 -4.92 21 -9 21 C-9 20.01 -9 19.02 -9 18 C-7.35 18 -5.7 18 -4 18 C-4.061875 17.071875 -4.12375 16.14375 -4.1875 15.1875 C-4 12 -4 12 -2.53125 10.59375 C-0.53539152 8.51642791 -0.51796465 7.14791214 -0.3125 4.3125 C-0.24675781 3.50425781 -0.18101562 2.69601563 -0.11328125 1.86328125 C-0.07589844 1.24839844 -0.03851563 0.63351563 0 0 Z " fill="#12191B" transform="translate(294,246)"/>
<path d="M0 0 C0.33 0 0.66 0 1 0 C1 14.52 1 29.04 1 44 C0.67 44 0.34 44 0 44 C-0.06058594 42.68644531 -0.12117188 41.37289062 -0.18359375 40.01953125 C-0.26803256 38.28384459 -0.35267888 36.54816802 -0.4375 34.8125 C-0.47681641 33.94818359 -0.51613281 33.08386719 -0.55664062 32.19335938 C-0.76432347 28.02372689 -1.09221134 24.08504896 -2 20 C-2.55526022 13.15609499 -1.39893542 6.68241474 0 0 Z " fill="#98AAB6" transform="translate(126,292)"/>
<path d="M0 0 C0.33 0.99 0.66 1.98 1 3 C0.34 3 -0.32 3 -1 3 C-0.87625 4.1446875 -0.87625 4.1446875 -0.75 5.3125 C-0.8325 6.199375 -0.915 7.08625 -1 8 C-3 9.625 -3 9.625 -5 11 C-5 11.99 -5 12.98 -5 14 C-6.50390625 15.578125 -6.50390625 15.578125 -8.5625 17.25 C-12.13722586 20.21101186 -15.27920611 23.34357193 -18.359375 26.8125 C-20 28 -20 28 -22.203125 27.6875 C-22.79609375 27.460625 -23.3890625 27.23375 -24 27 C-23.319375 26.67 -22.63875 26.34 -21.9375 26 C-18.55270079 23.69545586 -16.26274131 21.06046925 -13.6484375 17.9375 C-12.16828361 16.19779306 -10.62488099 14.60243788 -9 13 C-6.00359177 9.53540299 -4.00658321 6.10437475 -2 2 C-1.34 1.34 -0.68 0.68 0 0 Z " fill="#020404" transform="translate(352,223)"/>
<path d="M0 0 C2.24609375 -0.24609375 2.24609375 -0.24609375 5 0 C7.09765625 1.71484375 7.09765625 1.71484375 9.0625 3.9375 C11.70886748 6.90876805 13.13681259 8.16920701 17 9 C17.71247732 10.6476038 18.37400383 12.31763529 19 14 C19.721875 14.680625 20.44375 15.36125 21.1875 16.0625 C21.785625 16.701875 22.38375 17.34125 23 18 C22.75 20.25 22.75 20.25 22 22 C21.401875 21.071875 20.80375 20.14375 20.1875 19.1875 C18.53303719 16.77671133 17.08057358 14.98149864 15 13 C14.67 12.34 14.34 11.68 14 11 C13.01 10.67 12.02 10.34 11 10 C11 9.34 11 8.68 11 8 C10.34 8 9.68 8 9 8 C9 7.34 9 6.68 9 6 C8.443125 5.731875 7.88625 5.46375 7.3125 5.1875 C4.79739624 3.89596023 2.3827482 2.52231135 0 1 C0 0.67 0 0.34 0 0 Z " fill="#0F1014" transform="translate(323,123)"/>
<path d="M0 0 C0 3 0 3 -1.27734375 4.46484375 C-2.38136442 5.44417503 -3.48553038 6.42334254 -4.58984375 7.40234375 C-6.16764836 8.91317513 -6.16764836 8.91317513 -6.37890625 11.06640625 C-6.58386719 11.70449219 -6.78882813 12.34257812 -7 13 C-8.65212159 13.70193767 -10.32171022 14.36315965 -12 15 C-14.50576708 17.14510114 -14.50576708 17.14510114 -16.8125 19.625 C-17.60269531 20.44226563 -18.39289063 21.25953125 -19.20703125 22.1015625 C-19.79871094 22.72804688 -20.39039063 23.35453125 -21 24 C-21.99 23.67 -22.98 23.34 -24 23 C-23.55269531 22.63648438 -23.10539062 22.27296875 -22.64453125 21.8984375 C-19.5421181 19.31860567 -16.73438159 16.81594883 -14.25 13.625 C-13.5075 12.75875 -12.765 11.8925 -12 11 C-11.01 11 -10.02 11 -9 11 C-8.67 9.68 -8.34 8.36 -8 7 C-7.34 7 -6.68 7 -6 7 C-5.67 6.01 -5.34 5.02 -5 4 C-3.37667033 2.61423077 -1.71275535 1.27358732 0 0 Z " fill="#92D6D7" transform="translate(385,269)"/>
<path d="M0 0 C0.66 0 1.32 0 2 0 C2.27714844 0.63808594 2.55429687 1.27617187 2.83984375 1.93359375 C3.20207031 2.75988281 3.56429688 3.58617187 3.9375 4.4375 C4.47697266 5.67306641 4.47697266 5.67306641 5.02734375 6.93359375 C5.83122323 8.94410117 5.83122323 8.94410117 7 10 C7.39569108 12.01311449 7.74252191 14.03597208 8.0625 16.0625 C8.23910156 17.16722656 8.41570312 18.27195313 8.59765625 19.41015625 C8.73042969 20.26480469 8.86320312 21.11945313 9 22 C8.01 22 7.02 22 6 22 C6 20.35 6 18.7 6 17 C5.34 17 4.68 17 4 17 C4 14.03 4 11.06 4 8 C2.68 7.34 1.36 6.68 0 6 C-1.24546405 3.50907189 -0.7767578 2.58919267 0 0 Z " fill="#060A09" transform="translate(403,133)"/>
<path d="M0 0 C0.66 0 1.32 0 2 0 C4.25998595 3.59462331 4.20868087 6.56595675 4.125 10.75 C4.10695313 11.92046875 4.08890625 13.0909375 4.0703125 14.296875 C4.03550781 15.63492188 4.03550781 15.63492188 4 17 C3.34 16.67 2.68 16.34 2 16 C2 15.34 2 14.68 2 14 C1.34 14 0.68 14 0 14 C0 9.38 0 4.76 0 0 Z " fill="#091112" transform="translate(411,156)"/>
<path d="M0 0 C0.33 0 0.66 0 1 0 C1.1979067 4.52044033 1.3814754 9.04135463 1.5625 13.5625 C1.61857422 14.83931641 1.67464844 16.11613281 1.73242188 17.43164062 C1.78076172 18.67236328 1.82910156 19.91308594 1.87890625 21.19140625 C1.9260376 22.32779541 1.97316895 23.46418457 2.02172852 24.63500977 C1.99886915 28.17512926 1.57607256 31.51059077 1 35 C0.34 35 -0.32 35 -1 35 C-1.02468646 30.33691801 -1.04285349 25.67387392 -1.05493164 21.01074219 C-1.05996588 19.42382139 -1.06679369 17.83690523 -1.07543945 16.25 C-1.08754482 13.97134251 -1.09323733 11.69274624 -1.09765625 9.4140625 C-1.10281754 8.70255035 -1.10797882 7.99103821 -1.11329651 7.25796509 C-1.11387171 2.22774341 -1.11387171 2.22774341 0 0 Z " fill="#C9CBCD" transform="translate(125,317)"/>
<path d="M0 0 C0.99 0.33 1.98 0.66 3 1 C2.06915029 2.77433812 1.13005387 4.54435149 0.1875 6.3125 C-0.59560547 7.79169922 -0.59560547 7.79169922 -1.39453125 9.30078125 C-2.78625031 11.64063008 -3.85355236 13.3493198 -6 15 C-6.99 15 -7.98 15 -9 15 C-9.33 15.99 -9.66 16.98 -10 18 C-10.66 16.68 -11.32 15.36 -12 14 C-10.35 14 -8.7 14 -7 14 C-7.04125 13.21625 -7.0825 12.4325 -7.125 11.625 C-7 9 -7 9 -5 7 C-4.01 7 -3.02 7 -2 7 C-2.33 5.68 -2.66 4.36 -3 3 C-2.01 3 -1.02 3 0 3 C0 2.01 0 1.02 0 0 Z " fill="#79ADBA" transform="translate(232,251)"/>
<path d="M0 0 C0.66 0 1.32 0 2 0 C2 1.65 2 3.3 2 5 C2.99 5.33 3.98 5.66 5 6 C4.67 10.62 4.34 15.24 4 20 C0.71091189 15.61454919 0.47356809 12.9594022 0.3125 7.75 C0.27833984 7.00492188 0.24417969 6.25984375 0.20898438 5.4921875 C0.12685946 3.66197508 0.06174347 1.83101331 0 0 Z " fill="#58D8DC" transform="translate(407,150)"/>
<path d="M0 0 C0.33 0 0.66 0 1 0 C1.95267263 7.97602562 1.98941394 15.67427621 1.5625 23.6875 C1.51029297 24.78255859 1.45808594 25.87761719 1.40429688 27.00585938 C1.2762779 29.67098163 1.14141505 32.33556082 1 35 C0.34 35 -0.32 35 -1 35 C-1.02468646 30.33691801 -1.04285349 25.67387392 -1.05493164 21.01074219 C-1.05996588 19.42382139 -1.06679369 17.83690523 -1.07543945 16.25 C-1.08754482 13.97134251 -1.09323733 11.69274624 -1.09765625 9.4140625 C-1.10281754 8.70255035 -1.10797882 7.99103821 -1.11329651 7.25796509 C-1.11387171 2.22774341 -1.11387171 2.22774341 0 0 Z " fill="#C7C8C9" transform="translate(125,95)"/>
<path d="M0 0 C0.66 0 1.32 0 2 0 C2 0.66 2 1.32 2 2 C2.66 2 3.32 2 4 2 C4.268125 3.11375 4.53625 4.2275 4.8125 5.375 C5.65809019 9.21840951 5.65809019 9.21840951 9 11 C9.1875 14.625 9.1875 14.625 9 18 C9.66 18 10.32 18 11 18 C10.67 20.31 10.34 22.62 10 25 C9.67 25 9.34 25 9 25 C8.71125 23.80375 8.4225 22.6075 8.125 21.375 C6.81531525 14.85203166 6.81531525 14.85203166 3.375 9.4375 C2 8 2 8 1.8125 5.3125 C1.874375 4.549375 1.93625 3.78625 2 3 C1.34 3 0.68 3 0 3 C0 2.01 0 1.02 0 0 Z " fill="#75BBB9" transform="translate(286,193)"/>
<path d="M0 0 C0.66 0 1.32 0 2 0 C2.268125 1.11375 2.53625 2.2275 2.8125 3.375 C3.65809019 7.21840951 3.65809019 7.21840951 7 9 C7.40843923 11.71203652 7.13336867 14.2437142 7 17 C6.34 17 5.68 17 5 17 C2.43873351 12.24336223 0.22489264 7.27970966 -1 2 C-0.67 1.34 -0.34 0.68 0 0 Z " fill="#6CD3CE" transform="translate(400,132)"/>
<path d="M0 0 C7.62951555 -0.34855655 13.92444501 -0.0017506 21 3 C21 3.33 21 3.66 21 4 C8.06960951 4.2139219 8.06960951 4.2139219 2 3 C1.34 2.01 0.68 1.02 0 0 Z " fill="#77A09D" transform="translate(290,110)"/>
<path d="M0 0 C2 2 2 2 2.22705078 4.06298828 C2.21657715 4.89040527 2.20610352 5.71782227 2.1953125 6.5703125 C2.18886719 7.46621094 2.18242188 8.36210937 2.17578125 9.28515625 C2.15902344 10.22230469 2.14226562 11.15945313 2.125 12.125 C2.11597656 13.06988281 2.10695313 14.01476562 2.09765625 14.98828125 C2.07404522 17.32577292 2.04111516 19.66276123 2 22 C1.01 22.33 0.02 22.66 -1 23 C-1.02902429 19.72918529 -1.04680684 16.4584037 -1.0625 13.1875 C-1.07087891 12.25873047 -1.07925781 11.32996094 -1.08789062 10.37304688 C-1.09111328 9.48037109 -1.09433594 8.58769531 -1.09765625 7.66796875 C-1.10289307 6.84578857 -1.10812988 6.0236084 -1.11352539 5.17651367 C-1 3 -1 3 0 0 Z " fill="#B0BAC1" transform="translate(125,388)"/>
<path d="M0 0 C6.9555864 6.75101033 11.95326136 13.10075617 16 22 C15.01 21.67 14.02 21.34 13 21 C13 20.34 13 19.68 13 19 C12.34 19 11.68 19 11 19 C11 17.68 11 16.36 11 15 C10.34 15 9.68 15 9 15 C6.89394814 13.33270895 6.03402609 12.08846784 5.0625 9.5625 C4.13508436 6.86425184 4.13508436 6.86425184 1.875 4.875 C1.25625 4.25625 0.6375 3.6375 0 3 C0 2.01 0 1.02 0 0 Z " fill="#B4DDCA" transform="translate(340,133)"/>
<path d="M0 0 C4.62 0 9.24 0 14 0 C14 1.65 14 3.3 14 5 C13.01 5.495 13.01 5.495 12 6 C12.04125 7.27875 12.0825 8.5575 12.125 9.875 C12.1953125 12.0546875 12.1953125 12.0546875 12 14 C11.34 14.66 10.68 15.32 10 16 C10 11.05 10 6.1 10 1 C6.7 1 3.4 1 0 1 C0 0.67 0 0.34 0 0 Z " fill="#050D16" transform="translate(113,217)"/>
<path d="M0 0 C0.66 0 1.32 0 2 0 C2 0.99 2 1.98 2 3 C1.34 3 0.68 3 0 3 C0 3.99 0 4.98 0 6 C-0.99 6 -1.98 6 -3 6 C-2.79375 6.61875 -2.5875 7.2375 -2.375 7.875 C-2.25125 8.57625 -2.1275 9.2775 -2 10 C-2.66 10.66 -3.32 11.32 -4 12 C-4.99 12 -5.98 12 -7 12 C-7 13.65 -7 15.3 -7 17 C-8.65 17 -10.3 17 -12 17 C-11.34 16.67 -10.68 16.34 -10 16 C-9.27840576 14.35636866 -8.60648579 12.68949614 -8 11 C-7.34 11 -6.68 11 -6 11 C-5.67 9.35 -5.34 7.7 -5 6 C-4.01 5.67 -3.02 5.34 -2 5 C-0.78130071 2.49552484 -0.78130071 2.49552484 0 0 Z " fill="#0F1214" transform="translate(232,248)"/>
<path d="M0 0 C0.99 0.33 1.98 0.66 3 1 C3 1.66 3 2.32 3 3 C3.66 3 4.32 3 5 3 C5 4.32 5 5.64 5 7 C5.66 7 6.32 7 7 7 C10 12.625 10 12.625 10 16 C10.66 16 11.32 16 12 16 C11.34 17.32 10.68 18.64 10 20 C8.27572137 17.33520576 6.98893196 14.96610413 6 11.9375 C5.0117428 9.03449447 3.8529045 7.39333498 2 5 C1.28837557 3.35202764 0.60968047 1.68834592 0 0 Z " fill="#0B0E0F" transform="translate(346,145)"/>
<path d="M0 0 C0.99 0 1.98 0 3 0 C2.7438709 2.08519216 2.46951265 4.1681505 2.1875 6.25 C2.03667969 7.41015625 1.88585937 8.5703125 1.73046875 9.765625 C1.00094066 12.99583492 0.30308723 14.65630418 -2 17 C-2.66 17 -3.32 17 -4 17 C-4 15.68 -4 14.36 -4 13 C-3.34 13 -2.68 13 -2 13 C-2 11.02 -2 9.04 -2 7 C-1.34 7 -0.68 7 0 7 C0 4.69 0 2.38 0 0 Z " fill="#020403" transform="translate(409,222)"/>
<path d="M0 0 C0.33 0 0.66 0 1 0 C1 6.6 1 13.2 1 20 C0.34 20 -0.32 20 -1 20 C-3.17647059 4.76470588 -3.17647059 4.76470588 0 0 Z " fill="#ADB9C0" transform="translate(126,144)"/>
<path d="M0 0 C1.32 0.33 2.64 0.66 4 1 C4 1.66 4 2.32 4 3 C4.763125 2.938125 5.52625 2.87625 6.3125 2.8125 C9.55902815 3.03900196 9.90680186 3.64515209 12 6 C12.86625 6.515625 13.7325 7.03125 14.625 7.5625 C17 9 17 9 18 11 C16.35 11 14.7 11 13 11 C13 10.34 13 9.68 13 9 C12.38125 8.9175 11.7625 8.835 11.125 8.75 C9 8 9 8 7.75 5.9375 C7.5025 5.298125 7.255 4.65875 7 4 C5.35 4 3.7 4 2 4 C2 3.34 2 2.68 2 2 C1.34 2 0.68 2 0 2 C0 1.34 0 0.68 0 0 Z " fill="#0A0E0B" transform="translate(344,72)"/>
<path d="M0 0 C0.33 1.32 0.66 2.64 1 4 C0.34 4 -0.32 4 -1 4 C-1 5.65 -1 7.3 -1 9 C-1.66 9 -2.32 9 -3 9 C-3 9.66 -3 10.32 -3 11 C-3.66 11.66 -4.32 12.32 -5 13 C-5.33 13.99 -5.66 14.98 -6 16 C-8.0625 16.6875 -8.0625 16.6875 -10 17 C-8.75692861 11.61335732 -5.98375599 8.14022562 -2.55859375 3.953125 C-0.95379353 2.08119984 -0.95379353 2.08119984 0 0 Z " fill="#010202" transform="translate(244,231)"/>
<path d="M0 0 C9.24214838 -0.63495676 9.24214838 -0.63495676 12.3125 1.9375 C13.1478125 2.9584375 13.1478125 2.9584375 14 4 C16.64184541 4.79681318 16.64184541 4.79681318 19 5 C19 5.99 19 6.98 19 8 C16.69 7.34 14.38 6.68 12 6 C12 5.34 12 4.68 12 4 C6.06 3.01 6.06 3.01 0 2 C0 1.34 0 0.68 0 0 Z " fill="#04050B" transform="translate(302,114)"/>
<path d="M0 0 C0.33 0 0.66 0 1 0 C1.33 3.96 1.66 7.92 2 12 C1.01 12 0.02 12 -1 12 C-0.96519531 12.62648437 -0.93039062 13.25296875 -0.89453125 13.8984375 C-0.85392578 15.12433594 -0.85392578 15.12433594 -0.8125 16.375 C-0.77769531 17.18710938 -0.74289062 17.99921875 -0.70703125 18.8359375 C-0.80371094 19.55007812 -0.90039062 20.26421875 -1 21 C-1.99 21.66 -2.98 22.32 -4 23 C-2.96324187 15.24637268 -1.83622588 7.60722152 0 0 Z " fill="#53C2DC" transform="translate(295,234)"/>
<path d="M0 0 C0.66 0.33 1.32 0.66 2 1 C-0.35817121 3.47495684 -2.73921916 5.9266706 -5.125 8.375 C-5.79015625 9.07367188 -6.4553125 9.77234375 -7.140625 10.4921875 C-10.8533197 14.27768014 -13.63090748 16.87934829 -19 18 C-18.3125 16.125 -18.3125 16.125 -17 14 C-16.278125 13.7525 -15.55625 13.505 -14.8125 13.25 C-10.95248737 11.53443883 -8.57529426 8.89963991 -5.6875 5.875 C-5.13771484 5.31167969 -4.58792969 4.74835938 -4.02148438 4.16796875 C-2.67404562 2.78537942 -1.33605727 1.39359084 0 0 Z " fill="#8CB5B8" transform="translate(345,237)"/>
<path d="M0 0 C6.88875107 0.24515128 11.37211013 0.71208391 17 5 C19.7282504 5.78215588 19.7282504 5.78215588 22 6 C22 6.66 22 7.32 22 8 C19.25 8.25 19.25 8.25 16 8 C15.38125 7.360625 14.7625 6.72125 14.125 6.0625 C10.98216912 3.01210532 8.3041517 3.28694345 4 3 C4 2.34 4 1.68 4 1 C2.68 0.67 1.36 0.34 0 0 Z " fill="#070C0A" transform="translate(322,64)"/>
<path d="M0 0 C1.65 0 3.3 0 5 0 C5 1.32 5 2.64 5 4 C5.928125 4.0928125 5.928125 4.0928125 6.875 4.1875 C9 5 9 5 10.0625 7.375 C10.371875 8.24125 10.68125 9.1075 11 10 C12.52007842 11.77277259 12.52007842 11.77277259 14 13 C13.67 13.66 13.34 14.32 13 15 C9.64185385 12.52557652 7.83888862 10.67777724 6 7 C5.34 6.690625 4.68 6.38125 4 6.0625 C1.25013332 4.60163333 0.91166696 2.88694538 0 0 Z " fill="#8AE2D7" transform="translate(373,96)"/>
<path d="M0 0 C1.65 0 3.3 0 5 0 C5 0.66 5 1.32 5 2 C5.86625 2.37125 5.86625 2.37125 6.75 2.75 C9.29879381 4.16599656 10.94723215 5.94723215 13 8 C13.99 8.33 14.98 8.66 16 9 C15.67 10.32 15.34 11.64 15 13 C14.33613281 12.38511719 13.67226563 11.77023438 12.98828125 11.13671875 C12.10527344 10.32847656 11.22226562 9.52023438 10.3125 8.6875 C9.44238281 7.88699219 8.57226562 7.08648437 7.67578125 6.26171875 C5.21988682 4.18586054 2.7652222 2.61927426 0 1 C0 0.67 0 0.34 0 0 Z " fill="#83CFBA" transform="translate(357,83)"/>
<path d="M0 0 C0.66 0.66 1.32 1.32 2 2 C-3.61 7.61 -9.22 13.22 -15 19 C-15 16 -15 16 -13.83837891 14.51367188 C-13.30647949 14.00384766 -12.77458008 13.49402344 -12.2265625 12.96875 C-11.6490625 12.40542969 -11.0715625 11.84210938 -10.4765625 11.26171875 C-9.56003906 10.38966797 -9.56003906 10.38966797 -8.625 9.5 C-7.42750837 8.346007 -6.23211263 7.18983423 -5.0390625 6.03125 C-4.50490723 5.52142578 -3.97075195 5.01160156 -3.42041016 4.48632812 C-1.77489288 2.85065968 -1.77489288 2.85065968 0 0 Z " fill="#1BACCE" transform="translate(348,235)"/>
<path d="M0 0 C1.63727927 2.50407418 2.00195201 3.90825552 1.9375 6.9375 C0.77877523 10.7226676 -1.0511099 12.42917274 -4 15 C-4.66 14.67 -5.32 14.34 -6 14 C-5.525625 13.62875 -5.05125 13.2575 -4.5625 12.875 C-2.47794198 10.37353038 -2.35378509 8.18406582 -2 5 C-1.34 5 -0.68 5 0 5 C0 3.35 0 1.7 0 0 Z " fill="#142322" transform="translate(404,235)"/>
<path d="M0 0 C0.33 0 0.66 0 1 0 C1.05437607 1.58294782 1.09296271 3.16644256 1.125 4.75 C1.14820313 5.63171875 1.17140625 6.5134375 1.1953125 7.421875 C0.99139502 10.1135858 0.36551721 11.69904974 -1 14 C-1.33 14 -1.66 14 -2 14 C-2.05389087 12.04196493 -2.09274217 10.08351091 -2.125 8.125 C-2.14820313 7.03445312 -2.17140625 5.94390625 -2.1953125 4.8203125 C-2 2 -2 2 0 0 Z " fill="#000000" transform="translate(414,208)"/>
<path d="M0 0 C4.23588093 -0.50427154 5.65418572 -0.26281885 9.125 2.375 C10.07375 3.24125 11.0225 4.1075 12 5 C14.21587348 6.27852287 14.21587348 6.27852287 16 7 C15.67 7.99 15.34 8.98 15 10 C14.50371094 9.60167969 14.00742187 9.20335937 13.49609375 8.79296875 C9.14697367 5.40115025 5.1649071 2.93684016 0 1 C0 0.67 0 0.34 0 0 Z " fill="#A3D8B6" transform="translate(261,173)"/>
<path d="M0 0 C0.33 0.66 0.66 1.32 1 2 C0.04882866 3.1725131 -0.91117009 4.33787015 -1.875 5.5 C-2.40867188 6.1496875 -2.94234375 6.799375 -3.4921875 7.46875 C-4.23855469 8.22671875 -4.23855469 8.22671875 -5 9 C-5.66 9 -6.32 9 -7 9 C-7 9.66 -7 10.32 -7 11 C-7.66 11 -8.32 11 -9 11 C-8.67 10.01 -8.34 9.02 -8 8 C-7.34 8 -6.68 8 -6 8 C-5.34 5.69 -4.68 3.38 -4 1 C-2.68 0.67 -1.36 0.34 0 0 Z " fill="#5D9EB7" transform="translate(200,297)"/>
<path d="M0 0 C2.97 0 5.94 0 9 0 C8.67 0.66 8.34 1.32 8 2 C3.79683254 3.25857557 -0.46614605 3.11656948 -4.8125 3.0625 C-5.50537109 3.05798828 -6.19824219 3.05347656 -6.91210938 3.04882812 C-8.60811068 3.03713156 -10.30406703 3.01919924 -12 3 C-12 2.67 -12 2.34 -12 2 C-8.04 2 -4.08 2 0 2 C0 1.34 0 0.68 0 0 Z " fill="#84D1DE" transform="translate(297,265)"/>
<path d="M0 0 C3.30286086 1.10095362 3.78510901 1.6896019 5.6875 4.4375 C6.34298828 5.36369141 6.34298828 5.36369141 7.01171875 6.30859375 C8 8 8 8 8 10 C4.63362603 8.5572683 2.33497429 6.83532593 0 4 C0 2.68 0 1.36 0 0 Z " fill="#111915" transform="translate(382,101)"/>
<path d="M0 0 C2.97 0 5.94 0 9 0 C9 0.66 9 1.32 9 2 C7.98679687 2.19916016 7.98679687 2.19916016 6.953125 2.40234375 C5.61507813 2.66724609 5.61507813 2.66724609 4.25 2.9375 C3.36828125 3.11152344 2.4865625 3.28554688 1.578125 3.46484375 C-0.63235053 3.92368488 -2.81512068 4.43336074 -5 5 C-5 4.01 -5 3.02 -5 2 C-3.35 2 -1.7 2 0 2 C0 1.34 0 0.68 0 0 Z " fill="#262E30" transform="translate(324,311)"/>
<path d="M0 0 C1.32 0.33 2.64 0.66 4 1 C1.19527484 4.29967665 -2.16918209 6.08459104 -6 8 C-6.99 7.67 -7.98 7.34 -9 7 C-3.375 2 -3.375 2 0 2 C0 1.34 0 0.68 0 0 Z " fill="#90D1D4" transform="translate(356,294)"/>
<path d="M0 0 C0 3 0 3 -1.9375 5 C-2.618125 5.66 -3.29875 6.32 -4 7 C-4.33 7.99 -4.66 8.98 -5 10 C-5.66 10 -6.32 10 -7 10 C-7.33 10.66 -7.66 11.32 -8 12 C-8.33 11.01 -8.66 10.02 -9 9 C-8.34 9 -7.68 9 -7 9 C-6.87625 7.88625 -6.87625 7.88625 -6.75 6.75 C-5.79113195 3.23415048 -3.97054162 0 0 0 Z " fill="#121313" transform="translate(221,266)"/>
<path d="M0 0 C3 1 3 1 4 3 C4.07033769 4.87379605 4.0843022 6.75001102 4.0625 8.625 C4.05347656 9.62789062 4.04445312 10.63078125 4.03515625 11.6640625 C4.02355469 12.43492187 4.01195312 13.20578125 4 14 C3.34 13.67 2.68 13.34 2 13 C2 9.7 2 6.4 2 3 C1.34 3 0.68 3 0 3 C0 2.01 0 1.02 0 0 Z " fill="#D1DDCF" transform="translate(243,221)"/>
<path d="M0 0 C0.33 0 0.66 0 1 0 C1.19392201 5.52677733 0.7479503 9.75614911 -1 15 C-1.66 15 -2.32 15 -3 15 C-2.69257097 12.68682039 -2.37892298 10.37446648 -2.0625 8.0625 C-1.88847656 6.77472656 -1.71445312 5.48695313 -1.53515625 4.16015625 C-1 1 -1 1 0 0 Z " fill="#16CDD8" transform="translate(409,208)"/>
<path d="M0 0 C0.66 0.33 1.32 0.66 2 1 C-0.31537955 4.72114571 -2.28579473 7.61229661 -6 10 C-5.58578031 5.16743695 -3.53586014 3.17320782 0 0 Z " fill="#0C0E0E" transform="translate(384,272)"/>
<path d="M0 0 C0.66 0.33 1.32 0.66 2 1 C-2.625 5.875 -2.625 5.875 -6 7 C-6.99 6.67 -7.98 6.34 -9 6 C-9 5.34 -9 4.68 -9 4 C-7.02 4 -5.04 4 -3 4 C-3 3.34 -3 2.68 -3 2 C-2.01 1.34 -1.02 0.68 0 0 Z " fill="#73BDC9" transform="translate(322,256)"/>
<path d="M0 0 C-0.33 0.66 -0.66 1.32 -1 2 C-3.3140622 2.73075648 -5.64828869 3.40138258 -8 4 C-8 4.66 -8 5.32 -8 6 C-9.98 6 -11.96 6 -14 6 C-14 5.67 -14 5.34 -14 5 C-12.35 5 -10.7 5 -9 5 C-8.773125 4.38125 -8.54625 3.7625 -8.3125 3.125 C-6.35752088 -0.04020429 -3.50347766 -1.75173883 0 0 Z " fill="#181A19" transform="translate(327,254)"/>
<path d="M0 0 C0.36625971 4.51720311 0.36625971 4.51720311 -1.375 6.8125 C-3 8 -3 8 -5 8 C-4.6875 5.125 -4.6875 5.125 -4 2 C-1 0 -1 0 0 0 Z " fill="#46D5DD" transform="translate(402,241)"/>
<path d="M0 0 C2.125 0.9375 2.125 0.9375 4 2 C4 2.99 4 3.98 4 5 C2.02 5 0.04 5 -2 5 C-2 3.68 -2 2.36 -2 1 C-1.34 0.67 -0.68 0.34 0 0 Z " fill="#6BC1C2" transform="translate(324,118)"/>
<path d="M0 0 C2.375 0.6875 2.375 0.6875 5 2 C6.1875 4.5625 6.1875 4.5625 7 7 C7.66 7.33 8.32 7.66 9 8 C7.35 8 5.7 8 4 8 C3.67 7.34 3.34 6.68 3 6 C3.33 5.01 3.66 4.02 4 3 C2.35 3 0.7 3 -1 3 C-0.67 2.01 -0.34 1.02 0 0 Z " fill="#020403" transform="translate(374,93)"/>
<path d="M0 0 C0.33 0 0.66 0 1 0 C1.19477739 1.62414378 1.38059458 3.24936423 1.5625 4.875 C1.66691406 5.77992188 1.77132813 6.68484375 1.87890625 7.6171875 C2 10 2 10 1 12 C-0.64363134 12.72159424 -2.31050386 13.39351421 -4 14 C-2.125 10.125 -2.125 10.125 -1 9 C-0.76807135 7.48530552 -0.58784762 5.96245438 -0.4375 4.4375 C-0.35371094 3.61121094 -0.26992188 2.78492188 -0.18359375 1.93359375 C-0.12300781 1.29550781 -0.06242187 0.65742188 0 0 Z " fill="#283437" transform="translate(294,246)"/>
<path d="M0 0 C0.33 0.99 0.66 1.98 1 3 C0.34 3 -0.32 3 -1 3 C-1.0825 3.78375 -1.165 4.5675 -1.25 5.375 C-2 8 -2 8 -4.0625 9.3125 C-5.0215625 9.6528125 -5.0215625 9.6528125 -6 10 C-4.52307692 3.47692308 -4.52307692 3.47692308 -1.875 1.0625 C-1.25625 0.711875 -0.6375 0.36125 0 0 Z " fill="#000203" transform="translate(402,247)"/>
<path d="M0 0 C1.98 0 3.96 0 6 0 C6 0.66 6 1.32 6 2 C7.32 2 8.64 2 10 2 C10 2.99 10 3.98 10 5 C8.51800098 4.55090939 7.03944764 4.09043436 5.5625 3.625 C4.73878906 3.36976563 3.91507813 3.11453125 3.06640625 2.8515625 C1 2 1 2 0 0 Z " fill="#8BACAC" transform="translate(251,168)"/>
<path d="M0 0 C1.48484412 0.39595843 2.9628831 0.81750706 4.4375 1.25 C5.26121094 1.48203125 6.08492188 1.7140625 6.93359375 1.953125 C9 3 9 3 9.78515625 5.109375 C9.85605469 5.73328125 9.92695313 6.3571875 10 7 C9.46375 6.525625 8.9275 6.05125 8.375 5.5625 C5.57157164 3.71813924 3.30379742 3.37543153 0 3 C0 2.01 0 1.02 0 0 Z " fill="#182122" transform="translate(261,170)"/>
<path d="M0 0 C1.32 0.66 2.64 1.32 4 2 C3.525625 2.598125 3.05125 3.19625 2.5625 3.8125 C0.83534256 6.00382924 0.83534256 6.00382924 0 9 C-0.66 9 -1.32 9 -2 9 C-2 7.68 -2 6.36 -2 5 C-1.34 5 -0.68 5 0 5 C0 3.35 0 1.7 0 0 Z " fill="#CFE4D2" transform="translate(187,309)"/>
<path d="M0 0 C-0.66 1.98 -1.32 3.96 -2 6 C-2.66 6 -3.32 6 -4 6 C-4.33 6.66 -4.66 7.32 -5 8 C-5.75 6.25 -5.75 6.25 -6 4 C-2.77777778 0 -2.77777778 0 0 0 Z " fill="#0A0E10" transform="translate(205,288)"/>
<path d="M0 0 C0 0.66 0 1.32 0 2 C-0.66 2.66 -1.32 3.32 -2 4 C-2.33 4.99 -2.66 5.98 -3 7 C-5.0625 7.6875 -5.0625 7.6875 -7 8 C-4.18918919 0 -4.18918919 0 0 0 Z " fill="#0C0D10" transform="translate(241,240)"/>
<path d="M0 0 C0.66 0.99 1.32 1.98 2 3 C0.35 3.33 -1.3 3.66 -3 4 C-3.33 5.32 -3.66 6.64 -4 8 C-4.33 6.68 -4.66 5.36 -5 4 C-3.35 2.68 -1.7 1.36 0 0 Z " fill="#010103" transform="translate(199,294)"/>
<path d="M0 0 C1.32 0 2.64 0 4 0 C4 1.65 4 3.3 4 5 C4.66 5 5.32 5 6 5 C5.67 6.32 5.34 7.64 5 9 C3.35 6.03 1.7 3.06 0 0 Z " fill="#080A10" transform="translate(239,219)"/>
<path d="M0 0 C2.33524782 2.25740623 4.18705073 4.2805761 6 7 C6 7.99 6 8.98 6 10 C5.34 10 4.68 10 4 10 C2.27735506 6.70450534 0.70554068 3.66881155 0 0 Z " fill="#1AC3D7" transform="translate(401,139)"/>
<path d="M0 0 C0 2.31 0 4.62 0 7 C-0.99 7 -1.98 7 -3 7 C-3 5.02 -3 3.04 -3 1 C-1 0 -1 0 0 0 Z " fill="#67C3C4" transform="translate(409,222)"/>
<path d="M0 0 C0.33 0.99 0.66 1.98 1 3 C0.34 3 -0.32 3 -1 3 C-1 4.65 -1 6.3 -1 8 C-1.99 8.33 -2.98 8.66 -4 9 C-3.38461538 3.46153846 -3.38461538 3.46153846 -1.4375 1.125 C-0.963125 0.75375 -0.48875 0.3825 0 0 Z " fill="#0B080E" transform="translate(352,223)"/>
<path d="M0 0 C0.66 0 1.32 0 2 0 C1.34 1.32 0.68 2.64 0 4 C-2.97 4 -5.94 4 -9 4 C-9 3.67 -9 3.34 -9 3 C-8.43410156 2.86722656 -7.86820312 2.73445313 -7.28515625 2.59765625 C-6.18494141 2.33275391 -6.18494141 2.33275391 -5.0625 2.0625 C-4.33160156 1.88847656 -3.60070312 1.71445312 -2.84765625 1.53515625 C-1.00030102 1.16112431 -1.00030102 1.16112431 0 0 Z " fill="#82DEDF" transform="translate(333,307)"/>
<path d="M0 0 C0.99 0.33 1.98 0.66 3 1 C3 1.66 3 2.32 3 3 C3.66 3 4.32 3 5 3 C5 4.32 5 5.64 5 7 C5.66 7.33 6.32 7.66 7 8 C5.1875 7.9375 5.1875 7.9375 3 7 C1.25 3.4375 1.25 3.4375 0 0 Z " fill="#141618" transform="translate(346,145)"/>
<path d="M0 0 C1.65 0 3.3 0 5 0 C5 1.98 5 3.96 5 6 C4.01 5.67 3.02 5.34 2 5 C0.8125 2.4375 0.8125 2.4375 0 0 Z " fill="#62B09C" transform="translate(373,96)"/>
<path d="M0 0 C2.64 0.66 5.28 1.32 8 2 C8 2.66 8 3.32 8 4 C6.02 4 4.04 4 2 4 C1.34 2.68 0.68 1.36 0 0 Z " fill="#141A15" transform="translate(336,68)"/>
<path d="M0 0 C0.66 0.33 1.32 0.66 2 1 C1.67 2.65 1.34 4.3 1 6 C-0.65 6 -2.3 6 -4 6 C-3.34 5.67 -2.68 5.34 -2 5 C-1.27840576 3.35636866 -0.60648579 1.68949614 0 0 Z " fill="#080608" transform="translate(224,259)"/>
<path d="M0 0 C0.99 0 1.98 0 3 0 C1.84826645 2.46800047 0.95216435 4.04783565 -1 6 C-1.66 5.01 -2.32 4.02 -3 3 C-2.01 2.67 -1.02 2.34 0 2 C0 1.34 0 0.68 0 0 Z " fill="#489BC1" transform="translate(241,240)"/>
<path d="M0 0 C2.91387197 0.2913872 3.82565583 0.79452294 5.75 3.0625 C6.1625 3.701875 6.575 4.34125 7 5 C1.25 3.25 1.25 3.25 -1 1 C-0.67 0.67 -0.34 0.34 0 0 Z " fill="#AADFC6" transform="translate(331,67)"/>
</svg>
